<svg width="24" height="24" viewBox="0 0 24 24" fill="none" xmlns="http://www.w3.org/2000/svg"><g clip-path="url(#a)"><path d="M0 0h24v24H0V0z" fill="#F7E017"/><path d="M0 1.669v10.66l24 5v-5.671L0 1.669z" fill="#fff"/><path d="M0 7.331v5.002l24 9.998v-4.997L0 7.331z" fill="#000"/><g fill="#CF1126"><path d="M11.192 18.99a3.907 3.907 0 0 1-1.646-.574.989.989 0 0 0-.167-.1c-.013 0-.02.063-.02.137 0 .213-.087.32-.3.376-.207.054-.52-.053-.773-.266a2.276 2.276 0 0 0-.824-.45 1.33 1.33 0 0 0-.933.12.29.29 0 0 1-.093.043c-.037 0-.034-.23.006-.3.05-.1.17-.193.314-.243.073-.027.133-.06.133-.077a.542.542 0 0 0-.057-.12c-.096-.17-.056-.333.114-.463.173-.134.466-.154.723-.057.043.018.088.034.133.047.034 0 .014-.05-.08-.187a.54.54 0 0 1-.116-.423.49.49 0 0 1 .45-.45c.193-.014.313.053.6.323a4.8 4.8 0 0 0 2.866 1.387c.277.033.827.016 1.15-.034a5.2 5.2 0 0 0 2.727-1.36c.213-.2.313-.253.49-.253.15 0 .257.047.367.167.1.11.133.213.12.383a.485.485 0 0 1-.087.263c-.093.15-.077.167.107.094.253-.1.563-.054.73.106.146.14.16.28.046.467a.676.676 0 0 0-.076.147c0 .02.033.026.183.053.2.033.317.18.317.407 0 .066-.01.123-.02.123s-.087-.03-.167-.063a1.356 1.356 0 0 0-.64-.117c-.207 0-.277.01-.42.057a1.91 1.91 0 0 0-.65.383c-.213.19-.347.25-.553.247-.194 0-.324-.057-.394-.167-.036-.06-.043-.093-.033-.227a.68.68 0 0 0 0-.156c-.01 0-.083.046-.167.103-.19.136-.397.247-.616.33a6.053 6.053 0 0 1-2.744.323z"/><path d="M11.545 17.506A4.545 4.545 0 0 1 8.28 15.65c-.813-1.107-1.066-2.57-.82-3.907.134-.61.4-1.22.85-1.653a3.82 3.82 0 0 0-.29 2.476c.3 1.66 1.7 3.064 3.377 3.307.667.19 1.35-.013 1.984-.217 1.4-.493 2.466-1.82 2.593-3.303a4.09 4.09 0 0 0-.373-2.367c.206.11.466.54.62.827.533 1.033.556 2.27.243 3.373-.427 1.404-1.5 2.634-2.917 3.08a5.523 5.523 0 0 1-2 .24h-.003zm-6.477-1.842c-.083-.014-.176.07-.143.156.06.087.167.133.26.173.246.097.51.138.773.12.194 0 .385-.033.567-.1.1-.033.227-.066.267-.18.043-.07-.034-.143-.104-.13-.1.024-.2.067-.3.097a1.93 1.93 0 0 1-.676.067 1.806 1.806 0 0 1-.48-.14c-.054-.024-.104-.057-.164-.063z"/><path d="M5.163 15.317c-.084-.014-.157.086-.124.166.067.094.177.144.28.187.18.07.374.104.567.097h.05c.165 0 .328-.031.48-.094.09-.036.203-.073.243-.173.03-.057.007-.137-.066-.143-.06 0-.117.04-.177.056-.217.09-.452.127-.687.107a1.323 1.323 0 0 1-.416-.133c-.05-.024-.094-.06-.15-.067v-.003z"/><path d="M5.276 14.986c-.073-.01-.123.073-.11.137.01.06.06.1.104.133a1 1 0 0 0 .62.177h.053a.933.933 0 0 0 .4-.094c.083-.033.18-.076.21-.173.013-.043.02-.107-.03-.133-.053-.027-.103.017-.15.033-.16.084-.337.128-.517.13a.9.9 0 0 1-.436-.133c-.05-.024-.09-.067-.144-.077z"/><path d="M4.051 10.09c-.107.11-.023.31-.033.45.06.44.13.883.293 1.3.2.4.627.617.883.973.094.17.06.377.08.567a33.6 33.6 0 0 1 0 1.533c.234.12.484.233.75.19.157-.037.45-.06.484-.216l-.034-2.65c-.09-.27-.366-.41-.57-.584a5.183 5.183 0 0 1-.473-.537c-.087-.15-.43-.2-.307.054.074.223.257.386.304.62.01.13.166.367.033.44a.817.817 0 0 0-.357-.334c-.146-.11-.39-.156-.443-.35a1.43 1.43 0 0 0-.367-.733c.05-.247 0-.556-.213-.716l-.03-.007z"/><path d="M4.38 10.14c-.1.016-.093.14-.05.206.05.144.063.297.037.447.183.204.306.454.354.723 0 .1.106.134.176.184.164.103.344.18.49.31.03.033.054.066.034 0-.024-.087-.034-.18-.1-.244a.66.66 0 0 0-.34-.213c-.01-.14-.077-.267-.137-.387-.067-.116-.137-.24-.25-.313 0-.203 0-.417-.087-.607-.026-.046-.066-.103-.126-.106z"/><path d="M4.659 10.22c-.067.02-.053.106-.033.156.029.145.04.293.033.44.13.1.207.247.28.387.047.093.087.193.103.297a.85.85 0 0 1 .274.166c-.034-.093-.1-.166-.15-.256-.05-.09-.1-.187-.124-.29a.488.488 0 0 1-.133-.4.627.627 0 0 0-.15-.44c-.027-.027-.06-.057-.1-.06z"/><path d="M4.976 10.267c-.04.006-.06.04-.08.07-.01.03.027.06.034.093a.72.72 0 0 1 .046.347.433.433 0 0 0 .067.233.13.13 0 0 1 .117-.094c.016 0 .046.007.033-.023a1.682 1.682 0 0 0-.093-.466.32.32 0 0 0-.094-.15.037.037 0 0 0-.033-.01h.003zm13.96 5.397c.083-.014.176.07.143.156-.06.087-.167.133-.26.173-.246.097-.51.138-.773.12-.194 0-.385-.033-.567-.1-.1-.033-.227-.066-.267-.18-.043-.07.034-.143.104-.13.1.024.2.067.3.097.22.062.449.085.676.067.166-.024.328-.071.48-.14.054-.024.104-.057.164-.063z"/><path d="M18.841 15.317c.083-.014.157.086.123.166-.066.094-.176.144-.28.187-.18.07-.373.104-.566.097h-.05c-.165 0-.328-.031-.48-.094-.09-.036-.204-.073-.244-.173-.03-.057-.006-.137.067-.143.06 0 .117.04.177.056.217.09.452.127.686.107.147-.017.284-.07.417-.133.05-.024.093-.06.15-.067v-.003z"/><path d="M18.728 14.986c.073-.01.123.073.11.137-.01.06-.06.1-.104.133a1 1 0 0 1-.62.177h-.053a.934.934 0 0 1-.4-.094c-.083-.033-.18-.076-.21-.173-.013-.043-.02-.107.03-.133.053-.027.103.017.15.033.16.084.337.128.517.13a.9.9 0 0 0 .436-.133c.05-.024.09-.067.144-.077z"/><path d="M19.953 10.09c.107.11.023.31.033.45-.06.44-.13.883-.293 1.3-.2.4-.627.617-.884.973-.093.17-.06.377-.08.567-.013.51-.01 1.023 0 1.533-.233.12-.483.233-.75.19-.156-.037-.45-.06-.483-.216l.034-2.65c.09-.27.366-.41.57-.584.17-.168.328-.347.473-.537.087-.15.43-.2.306.054-.073.223-.256.386-.303.62-.01.13-.166.367-.033.44a.818.818 0 0 1 .357-.334c.146-.11.39-.156.443-.35a1.43 1.43 0 0 1 .366-.733c-.05-.247 0-.556.214-.716l.03-.007z"/><path d="M19.623 10.14c.1.016.093.14.05.206a.907.907 0 0 0-.037.447 1.47 1.47 0 0 0-.353.723c0 .1-.107.134-.177.184-.163.103-.343.18-.49.31-.03.033-.053.066-.033 0 .024-.087.034-.18.1-.244a.66.66 0 0 1 .34-.213c.01-.14.077-.267.137-.387.066-.116.136-.24.25-.313 0-.203 0-.417.086-.607.027-.046.067-.103.127-.106z"/><path d="M19.345 10.22c.067.02.053.106.033.156-.029.145-.04.293-.033.44-.13.1-.207.247-.28.387a1.049 1.049 0 0 0-.103.297.85.85 0 0 0-.274.166c.034-.093.1-.166.15-.256.05-.09.1-.187.124-.29a.488.488 0 0 0 .133-.4.628.628 0 0 1 .15-.44c.027-.027.06-.057.1-.06z"/><path d="M19.028 10.267c.04.006.06.04.08.07.01.03-.027.06-.034.093a.728.728 0 0 0-.046.347.433.433 0 0 1-.067.233.13.13 0 0 0-.117-.094c-.016 0-.046.007-.033-.023.013-.16.037-.32.093-.466a.32.32 0 0 1 .094-.15.037.037 0 0 1 .033-.01h-.003zm-7.172 5.599a1.187 1.187 0 0 1-.997-.8c.01-.073.1.04.144.05a.633.633 0 0 0 .266.087c.117.05.19.166.304.23.053.04.24.12.203-.01-.043-.067-.073-.154-.033-.234.06-.136.156-.256.256-.373.07-.023.12.12.17.167.07.11.157.243.114.376-.04.05-.067.2.043.154.133-.06.243-.16.353-.254.1-.066.224-.07.324-.133.05-.01.146-.103.166-.053-.06.149-.143.287-.246.41a1.07 1.07 0 0 1-.627.363 1.622 1.622 0 0 1-.44.02z"/><path d="M12.386 15.34a.452.452 0 0 0-.057-.267 2.504 2.504 0 0 0-.267-.397c-.093-.053-.143.123-.203.174-.097.143-.217.29-.223.466-.054.083-.154-.067-.197-.117a.633.633 0 0 1-.133-.4 1.693 1.693 0 0 1 .12-.686c.066-.187.17-.367.16-.567.006-.156-.024-.323-.147-.426-.12-.094.077-.114.137-.067.106.01.163.183.26.14.036-.09.046-.2.126-.27.077-.107.157.043.184.117.056.06 0 .216.086.22.107-.077.184-.2.32-.23.057-.034.15 0 .077.06a.629.629 0 0 0-.207.356.855.855 0 0 0 .09.514c.15.313.267.666.19 1.016a.65.65 0 0 1-.266.377c-.017.01-.044.01-.05-.014z"/><path d="M12.223 12.987a.705.705 0 0 0-.186-.233c-.08 0-.13.1-.184.153-.036.07-.083.187-.176.097-.15-.087-.173-.277-.173-.434-.01-.253.093-.49.183-.72a.75.75 0 0 0 .007-.453c-.044-.167-.18-.287-.284-.42.007-.05.14-.024.19-.014.114.03.18.127.264.2.06-.02.033-.14.063-.196 0-.08.107-.184.15-.07.066.073 0 .216.083.26.08-.03.12-.117.194-.157a.266.266 0 0 1 .26-.017c.03.074-.087.134-.12.2a.68.68 0 0 0-.127.6c.046.167.126.317.156.484.037.19.03.386-.016.573-.03.114-.127.187-.227.233-.026-.023-.04-.056-.056-.086z"/><path d="M11.72 10.897c-.113-.084-.15-.16-.15-.317 0-.077.017-.12.067-.193.08-.107.067-.14-.043-.11-.177.05-.26.006-.267-.144 0-.073.013-.103.11-.223.08-.093.11-.143.093-.16-.016-.013-.11.067-.3.26a3.96 3.96 0 0 1-.38.353c-.326.22-.64.254-.783.084-.073-.087-.07-.134.013-.187a.914.914 0 0 0 .147-.123c.163-.15.343-.28.537-.387.12-.06.146-.1.07-.1-.1 0-.417.207-.66.427-.07.066-.174.14-.227.166a.848.848 0 0 1-.463.034c-.074-.024-.21-.15-.21-.197 0-.01.033-.037.066-.06a.998.998 0 0 0 .154-.107c.193-.166.56-.343.85-.406.093-.017.056-.067-.047-.06a1.867 1.867 0 0 0-.833.39c-.277.23-.694.206-.827-.044-.023-.043-.04-.083-.033-.09a3.13 3.13 0 0 0 .68-.26c.185-.11.39-.183.603-.216.093-.017.1-.064.01-.074-.12-.013-.3.047-.617.2-.41.204-.526.24-.74.227-.2-.013-.31-.063-.466-.213-.107-.1-.254-.35-.227-.38.173.036.35.05.527.043.276 0 .353-.007.5-.05a2.81 2.81 0 0 0 .8-.403 1.92 1.92 0 0 1 1.226-.454c.414 0 .674.094.907.33.08.08.147.13.157.12.01-.01.02-.15.023-.31 0 0 .123-.013.15.024 0 .256 0 .28.04.28.023 0 .05-.027.067-.067.033-.083.166-.2.306-.273.3-.15.824-.157 1.244-.01.2.076.388.183.556.316.245.173.515.308.8.4.227.067.634.084.837.034.06-.014.12-.025.18-.034.077 0-.053.254-.207.404-.28.273-.643.27-1.153-.004-.32-.173-.7-.266-.7-.173 0 .02.02.033.05.033.11 0 .323.074.623.217.189.109.395.182.61.217.077 0 .08.05.007.156-.077.114-.207.167-.39.167-.177 0-.277-.037-.433-.167-.267-.22-.92-.466-.897-.333.007.023.037.04.107.05.281.061.545.187.77.367l.196.143c.037.02.037.027.007.083-.047.094-.173.164-.307.177-.173.02-.326-.033-.483-.167-.333-.276-.643-.476-.743-.476-.084 0-.047.046.1.123.19.1.366.224.526.367.067.063.144.123.167.136.063.034.06.08-.007.167-.066.087-.18.127-.323.11-.287-.03-.513-.167-.867-.533a2.364 2.364 0 0 0-.273-.26c-.047 0-.017.063.073.166.114.124.134.194.09.3-.036.087-.1.11-.226.074-.134-.034-.154 0-.067.103.127.163.11.357-.05.493a.4.4 0 0 1-.113.077c-.014 0-.047-.033-.077-.08-.1-.153-.19-.153-.29 0a1.808 1.808 0 0 1-.067.1 3.61 3.61 0 0 1-.1-.073z"/><path d="M12.225 7.767l-.173.133-.154-.113v.926h.327v-.946z"/><path d="M11.163 6.81c-.03.374-.132.74-.3 1.076l.37-.343.257.307.28-.314.283.267.274-.277.283.334.247-.274.42.3c-.154-.333-.357-.62-.334-1.093-.403.3-1.366.353-1.78.013v.004z"/><path d="M11.902 6.586c-.15 0-.307.004-.447.034a.67.67 0 0 0-.26.1c.01.286 1.367.403 1.73.006a.667.667 0 0 0-.273-.11c-.133-.026-.287-.026-.43-.033v.237h-.32v-.234z"/><path d="M12.163 5.133h-.21v1.646h.213l-.003-1.646z"/><path d="M12.163 5.173l-.08.79.81.397-.41-.55.56-.184-.88-.453zm-.09-.203c-.124 0-.214.046-.214.1 0 .053.09.1.214.1.123 0 .213-.047.213-.1 0-.054-.09-.1-.213-.1z"/></g><g fill="#F7E017"><path d="M11.701 18.796c.136-.047.211-.126.263-.281a.849.849 0 0 0 .047-.183c-.014-.047-.075-.047-.136.01-.047.032-.047.051-.038.126.033.188-.033.235-.389.272-.033 0-.136 0-.225-.014-.169-.019-.225 0-.164.047a.327.327 0 0 0 .103.047c.094.023.44.009.54-.029v.005zm.736-.033a.563.563 0 0 1 .15-.07c.085-.028.131-.056.164-.112.103-.155.085-.286-.065-.47-.085-.093-.122-.093-.188.02-.056.093-.056.093.028.117a.18.18 0 0 1 .108.084c.09.155.06.249-.07.249-.122 0-.155.018-.188.093a.417.417 0 0 0-.028.099c0 .033.047.028.09-.01zm-.244-.178c.024-.06.033-.169.029-.393 0-.174-.005-.32-.015-.329-.018-.014-.117.047-.13.09a.205.205 0 0 0 .023.107c.032.061.037.117.028.352-.014.295.004.342.065.173z"/><path d="M11.63 18.45c.014-.057.028-.17.033-.254.009-.08.023-.187.037-.234.038-.112 0-.14-.094-.075l-.065.047.014.164c.014.15-.01.427-.047.534-.005.033.01.024.047-.018a.441.441 0 0 0 .075-.17v.006zm-.502.08c.122-.104.108-.282.136-.423 0-.093.061-.206.019-.286-.113.02-.188.127-.127.235a.738.738 0 0 1-.06.375c-.052.07-.22.047-.212-.052.043-.154-.14-.08-.215-.037-.056.037-.174.042-.131-.056-.029-.132-.193-.047-.282-.047-.084 0-.009-.174-.13-.141-.226-.023-.479 0-.676-.14-.112-.052-.094-.188-.037-.282.075-.122.093-.276.206-.37.112-.108-.103-.061-.155-.024-.108.057-.01.211-.094.296-.056.093-.126.21-.243.197-.178-.033-.282-.197-.403-.305-.108-.024-.047.173.009.216.111.082.237.142.37.178.131-.024.136.15.249.178.206.093.436.122.656.136.094.004.042.164.16.13.065.02.21-.023.215.052-.094.118.094.118.169.094.093-.014.206-.047.234.075.075.085.216.07.305.024l.037-.024z"/><path d="M9.14 17.517c.032-.047.089-.14.122-.21a.812.812 0 0 1 .098-.174c.06-.066.028-.103-.07-.08-.047.01-.07.028-.075.07-.028.141-.08.286-.127.352-.084.122-.084.127-.047.127.014 0 .056-.038.094-.085h.005zm-1.257-.783c-.093 0-.093.061-.004.094.042.014.08.047.108.113.093.173.14.206.375.225l.154.014.005.093c.005.047.019.094.028.094.014 0 .07-.028.131-.056.108-.056.216-.188.216-.267 0-.052-.094-.113-.169-.113a.327.327 0 0 0-.16.07c-.168.122-.346.094-.445-.06-.08-.132-.164-.207-.239-.207zm.816.328c.047 0 .056.033.033.094-.019.047-.075.047-.094 0-.014-.047.014-.093.061-.093zm6.324-.206c-.062 0-.08.014-.118.075-.065.094-.07.296-.01.366.034.047.038.047.118.014.108-.047.127-.042.122.014 0 .15-.211.431-.431.586a.4.4 0 0 0-.118.098c-.018.047.066.033.165-.018.14-.07.318-.253.393-.399.057-.117.066-.154.075-.356 0-.188 0-.24-.032-.305-.033-.07-.047-.075-.136-.075h-.028zm.009.131c.047 0 .051.01.056.076.005.056 0 .089-.033.117-.047.037-.047.037-.084-.02-.047-.079-.019-.172.06-.172zm-1.013 1.42a.75.75 0 0 0 .385-.36.975.975 0 0 0 .06-.155c0-.028-.093-.07-.154-.07s-.066-.042-.047-.15c.028-.108 0-.24-.047-.24-.018 0-.047.024-.065.052-.033.047-.033.07-.01.141.033.094.005.173-.084.234-.047.033-.07.07-.07.103 0 .029.004.052.009.052l.108-.052.094-.056.06.047c.029.024.057.066.057.09 0 .116-.338.318-.572.337-.122.01-.14 0-.188-.038-.032-.037-.047-.065-.037-.108l.028-.126c.023-.103-.023-.09-.098.033-.066.093-.085.206-.047.262.028.047.22.09.356.08a.638.638 0 0 0 .262-.075zm1.299-.726c.122-.122.178-.272.178-.501v-.174l.098-.047c.132-.06.258-.187.258-.253 0-.075-.033-.07-.089.01-.042.056-.094.089-.3.182-.051.024-.056.038-.065.254-.015.248-.047.337-.188.51-.084.099-.09.113-.028.113.023 0 .084-.037.14-.094h-.004zm-1.336-.14c.014-.033-.056-.057-.084-.029a.036.036 0 0 0-.005.047c.018.033.08.024.093-.014l-.004-.004zm1.842-.474c.014-.037-.056-.06-.084-.033-.014.014-.014.038-.005.047.019.033.08.024.094-.014h-.005zm-2.217-1.294c-.047.024-.07.075-.103.118-.024.014-.005.028.01.046.084.09.116.211.159.329.037.13.088.276.046.417-.018.051-.06.108-.121.094-.104-.01-.202-.033-.3-.033-.094 0-.165.084-.254.075-.06.004-.056-.117-.112-.085-.028.066-.014.136-.019.207.014.009.042 0 .056 0h.188c.01.065.005.14.051.187.066.024.136 0 .193-.023.065-.028.075-.108.093-.164.02-.066.104-.047.155-.075a.286.286 0 0 0 .192-.286c-.005-.192-.08-.375-.136-.553-.028-.08-.047-.16-.08-.24 0-.004-.009-.014-.018-.009v-.005zm-.3 1.093c.066 0 .094.08.084.136-.028.075-.122.028-.14-.029-.033-.046-.01-.112.056-.107z"/><path d="M10.801 16.242a.169.169 0 0 0-.098.033c-.178.127-.225.272-.103.328.089.042.065.094-.075.164-.197.094-.375.085-.703-.051-.085-.038-.108-.024-.09.051.02.075.09.113.254.155.183.037.398.028.539-.033a.699.699 0 0 0 .215-.169l.108-.117.127.014c.155.019.16.024.16.094 0 .06 0 .066.145.075l.234.014c.066 0 .103.014.122.047.028.033.047.037.281.014.216-.019.263-.019.36.019a.46.46 0 0 0 .207.023c.169-.019.399-.155.431-.258a.366.366 0 0 1 .136-.047c.17-.032.178-.07.02-.089a1.142 1.142 0 0 1-.23-.056.61.61 0 0 0-.174-.042c-.084 0-.169.051-.169.108 0 .037.014.042.117.033.094-.014.122-.01.17.032.037.029.055.057.046.066-.019.038-.216.127-.305.14a.235.235 0 0 1-.15-.018c-.08-.038-.192-.047-.215-.014-.005.019-.033.01-.066-.024l-.047-.047-.122.047c-.121.047-.164.047-.164-.009 0-.028-.033-.028-.21-.019-.197.014-.216.01-.254-.028-.033-.037-.033-.051-.01-.094.024-.032.024-.046 0-.07-.018-.019-.046-.019-.121 0-.192.052-.248.024-.248-.127 0-.093-.052-.145-.118-.145zm-.046.14c.009 0 .014 0 .028.02.018.014.028.046.018.065-.014.047-.098.042-.117-.005a.06.06 0 0 1 .028-.065l.038-.019.005.005z"/><path d="M10.408 16.519c.113-.075.113-.066.127-.277.014-.14.014-.155-.028-.155-.057 0-.09.061-.09.183 0 .075-.009.113-.046.155-.104.094-.347.052-.375-.07-.01-.043 0-.08.051-.15.108-.15.085-.188-.047-.075-.094.08-.108.08-.089.014.014-.061-.019-.09-.094-.07-.032.009-.051.032-.06.08-.01.046-.033.07-.066.074-.061.019-.16-.037-.16-.089 0-.033.15-.216.343-.422a.892.892 0 0 0 .136-.155c0-.009-.043-.018-.09-.018-.07 0-.084.01-.084.042 0 .019-.098.15-.22.281-.249.281-.267.342-.14.413a.3.3 0 0 0 .323-.01l.08-.056v.103c0 .127.023.169.126.225a.398.398 0 0 0 .398-.023h.005zm5.217-1.73c-.094.056-.023.174-.01.248-.037.104-.168.132-.266.155-.141.019-.24.14-.291.263-.028.08-.098.201-.173.08-.066-.066-.188-.118-.263-.043-.06.056-.075.14-.098.216-.033-.056-.047-.14-.122-.16-.117.014-.075.165-.024.225.052.07.099.165.047.249-.037.103-.187.169-.281.084-.08-.047-.024-.201-.103-.21-.042.032-.047.191-.108.102-.047-.075-.023-.178-.08-.243-.065.01-.121.122-.098.187.081.125.135.266.16.413.023.06 0 .173.05.197.038-.094 0-.197.034-.291.084-.01.187.028.276.01a.37.37 0 0 0 .277-.244c.014-.094 0-.179-.005-.268.103.014.211.014.31.047.046.075-.015.183-.029.263-.051.169-.187.29-.314.403-.051.033-.06.117.019.075a.769.769 0 0 0 .375-.403c.056-.127.01-.272.047-.403.052-.104.178-.08.272-.08.093-.005.178-.117.14-.211-.028-.108.09-.16.164-.197.104-.051.188-.16.179-.281-.005-.061 0-.178-.085-.183zm-.37.623c.112.033-.019.244-.08.108-.014-.047.028-.107.08-.107zm-.516.155c.146-.01.094.202-.028.108-.066-.033-.047-.113.028-.108zm-5.236.816c.005-.024-.004-.038-.023-.038-.042 0-.066.038-.047.066.019.033.066.014.07-.028zm1.697-.188c0-.032-.014-.047-.037-.037-.056.01-.066.08-.01.08.033 0 .047-.015.047-.047v.004zm-2.095-1.017c-.07-.014-.113.042-.136.094a.51.51 0 0 1-.202.22c-.065.019-.14-.01-.192-.042-.07-.033-.051-.112-.084-.169-.047-.037-.131.014-.131.075-.005.08.07.127.13.155.052.033.127.052.15.117 0 .056.02.117.09.094.075 0 .094.094.06.15a.319.319 0 0 0-.037.201c.038.033.075-.046.103-.075l.052-.07c.131.01.267.024.398.019.094 0 .179-.061.235-.127.089-.093.16-.197.258-.272.07-.018.032-.15-.043-.112-.065.028-.084.098-.13.145a1.487 1.487 0 0 1-.254.263.37.37 0 0 1-.225 0c-.028-.024.061-.047.075-.075.042-.047.094-.085.113-.14-.024-.048-.094-.052-.141-.052-.127.014-.22.117-.342.126-.094 0-.047-.098 0-.131.08-.099.169-.192.258-.29.023-.029.112-.057.056-.095-.019-.009-.042-.009-.061-.009zm.06.497c.062.033-.041.094-.084.084-.056.014-.056-.042-.009-.051.028-.014.061-.033.094-.033zm-.191.131c.032 0 .107.033.037.052-.047.037-.103-.038-.037-.052z"/><path d="M10.472 15.89c0-.047-.084-.042-.093.01-.005.028 0 .037.047.032.023-.004.046-.023.046-.042zm3.736-.328c.01-.047-.056-.075-.089-.047-.033.038 0 .099.047.094.019-.01.038-.028.042-.047zm-5.812-.46c.056-.046.056-.05.033-.163-.038-.155-.033-.174.023-.188.075-.019.267.085.31.164.032.066.032.066-.024.117-.06.057-.06.122 0 .122.047 0 .188-.131.188-.178 0-.06-.155-.216-.272-.272a.536.536 0 0 0-.235-.047c-.154 0-.173.033-.136.211.047.207-.014.235-.187.08a.52.52 0 0 1-.169-.431c0-.207.08-.31.253-.328.122-.02.117-.047 0-.066-.183-.028-.328.094-.389.3-.06.234.085.52.338.666.136.08.187.08.267.014zm6.96-.257c.015-.014.024-.047.024-.07a.29.29 0 0 1 .056-.118.337.337 0 0 0 .057-.093c0-.043-.07-.038-.122 0-.056.046-.094.046-.094.004 0-.009.024-.032.056-.046.08-.038.085-.075.02-.108-.09-.038-.174.033-.184.15-.004.08 0 .093.061.126.056.033.066.052.056.094-.014.084.02.112.07.06zm.657-.075c.047-.042.084-.094.084-.108 0-.014.043-.056.094-.094.14-.103.174-.206.108-.37-.023-.06-.103-.15-.272-.305a1.732 1.732 0 0 0-.267-.215c-.047 0-.042.173.005.187.089.028.14.066.271.188.16.14.23.272.188.342-.033.07-.084.047-.225-.094a.614.614 0 0 0-.155-.14c-.018 0-.028.023-.028.065 0 .047.024.094.094.174.117.13.131.206.047.276-.038.024-.066.047-.075.047a1.673 1.673 0 0 0-.445-.497c-.024 0-.033.019-.033.07 0 .061.014.085.06.108.057.028.207.178.352.357a.535.535 0 0 0 .094.093.6.6 0 0 0 .098-.084h.005zm.29-.835c-.018-.06-.421-.468-.459-.468-.023 0-.028.023-.023.089 0 .08.014.094.066.103.037.014.14.094.234.188.094.093.178.159.187.154l-.004-.066zm-2.39 4.627a.054.054 0 0 1 .005.027.053.053 0 0 1-.01.026.058.058 0 0 1-.022.018.065.065 0 0 1-.058 0 .058.058 0 0 1-.022-.018.052.052 0 0 1-.005-.053.052.052 0 0 1 .01-.05.06.06 0 0 1 .021-.016.065.065 0 0 1 .076.017.052.052 0 0 1 .01.05h-.005zm.216-.07a.057.057 0 0 1-.018.04.064.064 0 0 1-.043.016.064.064 0 0 1-.043-.016.054.054 0 0 1-.018-.04c0-.015.006-.03.018-.04a.064.064 0 0 1 .043-.017c.016 0 .031.007.043.017.011.01.018.025.018.04z"/></g></g><defs><clipPath id="a"><rect width="24" height="24" rx="12" fill="#fff"/></clipPath></defs></svg>