<svg width="24" height="24" viewBox="0 0 24 24" fill="none" xmlns="http://www.w3.org/2000/svg"><g clip-path="url(#a)"><path d="M0 0h24v24H0V0z" fill="#032EA1"/><path d="M0 6h24v12H0V6z" fill="#E00025"/><g fill="#fff" stroke="#000"><path d="M8.625 11.315h6.828v2.628H8.625v-2.628z" stroke-width=".16" stroke-linejoin="bevel"/><path d="M15.105 12.76h.21v.99h-.21v-.99zm-6.48-.486h6.828v.3H8.625v-.3zm0-.42h6.828v.277H8.625v-.277z" stroke-width=".16" stroke-linejoin="bevel"/><path d="M8.625 11.446h6.828v.258H8.625v-.258z" stroke-width=".144" stroke-linejoin="bevel"/><path d="M10.424 12.76h.216v.99h-.216v-.99zm2.94 0h.216v.99h-.216v-.99zm-4.68 0h.21v.99h-.21v-.99zm.42 0h.21v.99h-.21v-.99zm.45 0h.21v.99h-.21v-.99zm.45 0h.21v.99h-.21v-.99zm3.768 0h.216v.99h-.216v-.99zm.45 0h.216v.99h-.216v-.99zm.45 0h.216v.99h-.216v-.99z" stroke-width=".16" stroke-linejoin="bevel"/><path d="M5.953 14.075a.558.558 0 0 0 .264-.318h11.586c.044.136.139.25.264.318H5.953z" stroke-width=".16"/></g><path d="M11.862 7.313s-.006-.246.138-.252c.138 0 .132.252.132.252h-.27zm-.75 3.27v-.33c0-.168-.168-.18-.168-.3 0 0-.024-.18.024-.264.066.24.18.198.18.096 0-.084-.06-.168-.198-.378-.048-.066-.018-.276.042-.354.024.18.054.27.132.27.048 0 .084-.03.084-.12 0-.12-.078-.18-.12-.288a.3.3 0 0 1 .066-.318c.03.18.024.252.102.252.162-.054 0-.288-.036-.348-.036-.066.06-.204.06-.204.048.162.06.174.12.156.072-.018.06-.12-.024-.204-.054-.06-.048-.138.012-.198.06.114.132.108.138.036l-.048-.264h1.044l-.054.258c-.012.072.084.09.144-.03.06.06.066.144.012.198-.084.084-.096.186-.024.204.06.018.072 0 .12-.156 0 0 .09.09.06.204-.036.06-.198.3-.036.348.078 0 .072-.072.102-.252a.3.3 0 0 1 .06.318c-.036.108-.12.168-.12.288 0 .09.042.12.09.12.078 0 .108-.084.132-.27.06.078.09.288.042.36-.138.204-.204.288-.204.372 0 .102.12.144.18-.096.054.084.03.264.03.264 0 .12-.162.132-.168.3v.33h-1.776zm.432-2.76l-.024-.186h.954l-.024.186h-.906zm.06-.192l-.012-.15h.81l-.018.15h-.78zm.138-.156l-.018-.156h.54l-.006.156h-.516zm1.98 6.6c-.12-.042-.3-.175-.3-.3v-1.459l.156-.204h-3.156l.15.204v1.458c0 .127-.12.259-.24.3h3.39z" fill="#fff" stroke="#000" stroke-width=".16"/><path d="M10.973 12.76h.216v.99h-.216v-.99zm1.824 0h.216v.99h-.216v-.99z" fill="#fff" stroke="#000" stroke-width=".16" stroke-linejoin="bevel"/><path d="M10.361 10.457v1.656h3.24v-1.656a.252.252 0 0 0-.156.168v.708h-2.921v-.708s-.036-.12-.168-.168h.005z" fill="#fff" stroke="#000" stroke-width=".16"/><path d="M13.157 14.075c-.108-.042-.336-.175-.336-.3v-1.633c.024-.09.144-.143.222-.204h-2.142c.102.06.216.102.258.204v1.633c0 .125-.18.258-.288.3h2.286z" fill="#fff" stroke="#000" stroke-width=".16"/><path d="M13.445 11.957v-1.176h-.294v-.114h-2.328v.12h-.3v1.17h2.922zm-.744 2.118c-.108-.042-.258-.174-.258-.3v-1.392l.084-.126h-1.062l.09.12v1.398c0 .126-.156.258-.258.3h1.404z" fill="#fff" stroke="#000" stroke-width=".16"/><path d="M11.723 12.257h.54v1.818h-.54v-1.818z" fill="#fff" stroke="#000" stroke-width=".16"/><path d="M12.546 11.855c0-.12.348-.126.528-.228h-2.16c.18.102.522.108.522.228l.072.234.9.036.138-.27z" fill="#fff" stroke="#000" stroke-width=".16" stroke-linejoin="bevel"/><path d="M12.964 10.583c0-.294.012-.402.102-.402v.924c-.222.084-.378.36-.378.36h-1.392s-.156-.276-.378-.36v-.93c.108 0 .108.12.108.402l1.938.006zm.102-.12a.35.35 0 0 1 .294-.372v.3c-.114-.006-.168.096-.168.24 0 .15.09.15.09.15v.852h-.216v-1.17z" fill="#fff" stroke="#000" stroke-width=".16"/><path d="M10.919 10.463c0-.336-.294-.372-.294-.372v.3c.114-.006.168.096.168.24 0 .15-.09.15-.09.15v.852h.216v-1.17z" fill="#fff" stroke="#000" stroke-width=".16"/><g stroke="#000"><path d="M11.49 8.14h1.032m-1.152.325h1.26m-1.38.39h1.494m-1.62.474h1.77m-1.812.54h1.824" stroke-width=".128"/><path d="M10.531 11.645h2.916m-1.992 0h1.08v.396h-1.08v-.396z" stroke-width=".16"/></g><path d="M11.32 10.756c.18.216.156.582.156.798h1.044c0-.216-.024-.582.156-.798H11.32zm.582-2.46l-.144-.078v-.21c.06.018.12.024.132.12.018-.138.06-.126.114-.18.06.054.09.042.114.18 0-.096.072-.102.126-.12v.21l-.138.072-.204.006z" fill="#fff" stroke="#000" stroke-width=".16"/><path d="M11.892 8.639l-.24-.168v-.186c.09.018.18.03.192.132.024-.15.078-.222.162-.282.078.06.132.132.162.282.006-.102.102-.114.18-.132v.192l-.234.162h-.222z" fill="#fff" stroke="#000" stroke-width=".16"/><path d="M11.873 9.173l-.27-.24V8.65c.096.024.204.036.216.186.03-.21.09-.324.18-.408.096.084.156.198.192.408.012-.15.12-.162.216-.186v.282l-.276.24h-.258zm.504.318l-.24.342h-.282l-.246-.342h.768zm-.912.57c.12.066.168.204.18.456h.696c.012-.252.06-.39.18-.456h-1.056z" fill="#fff" stroke="#000" stroke-width=".16"/><path d="M12.533 9.485v-.336a.312.312 0 0 0-.228.198c0-.12-.15-.378-.312-.51-.162.144-.318.384-.312.504-.03-.09-.108-.162-.228-.192v.342l1.08-.006z" fill="#fff" stroke="#000" stroke-width=".16" stroke-linejoin="bevel"/><path d="M12.582 10.06v-.336c-.126.036-.21.102-.246.198 0-.12-.162-.378-.342-.51-.18.15-.348.384-.342.51-.03-.09-.12-.162-.246-.198v.342l1.176-.006z" fill="#fff" stroke="#000" stroke-width=".16" stroke-linejoin="bevel"/><path d="M12.728 10.762v-.396a.577.577 0 0 0-.306.228c0-.21-.24-.54-.426-.642-.192.108-.426.444-.426.642a.582.582 0 0 0-.312-.228v.396h1.47z" fill="#fff" stroke="#000" stroke-width=".16" stroke-linejoin="bevel"/><path d="M12.644 11.645v-.408c-.144.054-.18.186-.228.282.018-.414-.228-.852-.42-.966-.192.114-.444.564-.42.96-.048-.084-.09-.222-.228-.276v.402l1.296.006z" fill="#fff" stroke="#000" stroke-width=".16" stroke-linejoin="bevel"/><path d="M12.545 12.257v-.408c-.15.036-.156.09-.204.18.018-.246-.156-.528-.348-.636a.76.76 0 0 0-.348.636c-.048-.09-.054-.144-.204-.18v.408h1.104zm-6.324 1.5v-1.224c-.042-.156-.18-.3-.276-.324v-1.08l.222.12.258 1.134v1.38l-.204-.006z" fill="#fff" stroke="#000" stroke-width=".16"/><path d="M6.221 13.763v-1.23c-.042-.156-.18-.3-.276-.324v-1.152c.15 0 .222.192.222.192l.258 1.134v1.374l-.204.006z" fill="#fff" stroke="#000" stroke-width=".16"/><path d="M6.059 14.075c.102-.042.252-.174.252-.3V12.24l-.072-.12H8.86l-.102.12v1.536a.36.36 0 0 0 .204.3H6.059z" fill="#fff" stroke="#000" stroke-width=".16"/><path d="M8.43 14.074c-.102-.042-.252-.174-.252-.3v-1.458l.216-.204H6.618l.216.204v1.458c0 .126-.15.258-.252.3H8.43z" fill="#fff" stroke="#000" stroke-width=".16"/><path d="M8.184 14.075c-.102-.042-.258-.174-.258-.3v-1.32l.144-.198H6.942l.144.198v1.32c0 .126-.15.258-.258.3h1.356z" fill="#fff" stroke="#000" stroke-width=".16"/><path d="M7.24 12.257h.534v1.824h-.54l.006-1.824z" fill="#fff" stroke="#000" stroke-width=".16"/><path d="M6.502 12.76h.216v.99h-.216v-.99zm1.848 0h.21v.99h-.216l.006-.99zm-2.034-1.668h.264v1.02h-.264v-1.02zm0-.192h.258v.192h-.258V10.9zm2.136.414h.366v.78h-.366v-.78z" fill="#fff"/><path d="M6.316 11.092h.264v1.02h-.264v-1.02zm0 0h.258V10.9h-.258v.192zm.186 1.668h.216v.99h-.216v-.99zm1.848 0h.21v.99h-.216l.006-.99zm.102-1.446h.366v.78h-.366v-.78z" stroke="#000" stroke-width=".16" stroke-linejoin="bevel"/><path d="M6.574 12.1v-1.74c.072 0 .084.259.252.259.09 0 .084-.108.03-.192-.042-.078-.096-.18-.024-.378.054.15.186.198.162.108-.042-.162-.168-.192-.072-.438.03.204.162.198.132.078-.036-.138-.114-.198-.018-.39.054.222.12.21.12.072 0-.204 0-.42.252-.498 0 0 .018-.18.114-.18.09 0 .108.18.108.18.258.078.252.3.252.498 0 .138.066.15.12-.072.096.192.018.252-.018.39-.03.12.102.126.132-.078.096.246-.03.276-.072.438-.024.09.108.042.162-.108.072.198.018.3-.024.378-.048.084-.06.192.03.192.168 0 .18-.252.252-.252V12.1h-1.89zm-.414-1.313v1.326h.15v-1.326c-.054-.03-.102-.03-.15 0z" fill="#fff" stroke="#000" stroke-width=".16"/><path d="M6.172 11.645c.186.096.372.21.42.468h-.42v-.468zm2.592-.396v.864h.12v-.864c-.036-.018-.09-.024-.12 0z" fill="#fff" stroke="#000" stroke-width=".16"/><path d="M8.884 11.645c-.186.09-.372.198-.42.462h.42v-.462zM7.648 9.623l.108-.09v-.12c-.036 0-.06.018-.09.06a.3.3 0 0 0-.15-.18.3.3 0 0 0-.156.174c-.03-.042-.048-.048-.09-.06v.12l.108.096h.27z" fill="#fff" stroke="#000" stroke-width=".16"/><path d="M7.708 9.917l.048-.114v-.15c-.036 0-.06.018-.09.06a.3.3 0 0 0-.15-.18.3.3 0 0 0-.156.174c-.03-.042-.048-.048-.09-.054v.15l.048.114h.39z" fill="#fff" stroke="#000" stroke-width=".16"/><path d="M7.722 10.313l.156-.198v-.192c-.06 0-.09.03-.132.096-.042-.138-.12-.162-.228-.228-.114.06-.192.09-.228.222-.048-.066-.078-.084-.138-.09v.192l.162.198h.408z" fill="#fff" stroke="#000" stroke-width=".16"/><path d="M7.762 10.703s.192-.162.198-.252v-.21c-.072.006-.138.024-.192.114-.048-.174-.12-.222-.252-.3-.138.078-.21.126-.252.3-.06-.09-.12-.108-.198-.12v.216a.9.9 0 0 0 .198.252h.498z" fill="#fff" stroke="#000" stroke-width=".16"/><path d="M7.84 11.423s.264-.282.27-.396v-.324c-.096.012-.192.078-.264.216-.06-.27-.156-.456-.33-.588-.18.132-.276.318-.336.588-.072-.138-.162-.204-.258-.216v.324c.018.114.264.396.264.396h.654z" fill="#fff" stroke="#000" stroke-width=".16"/><path d="M7.84 11.85s.222-.223.27-.319v-.324c-.096.012-.192.078-.264.21a.84.84 0 0 0-.33-.552c-.18.132-.276.282-.336.552-.072-.132-.162-.198-.258-.21v.324c.06.096.264.318.264.318h.654z" fill="#fff" stroke="#000" stroke-width=".16"/><path d="M7.932 12.1c-.06-.282-.12-.492-.426-.702-.312.21-.366.42-.432.702h.858z" fill="#fff" stroke="#000" stroke-width=".16"/><path d="M8.092 12.257v-.408c-.144.06-.27.138-.318.228-.048-.228-.15-.324-.276-.462-.126.138-.21.24-.264.462-.048-.09-.174-.174-.312-.228v.408h1.17zm9.691 1.5v-1.224c.042-.156.18-.3.276-.324v-1.08l-.222.12-.258 1.134v1.38l.204-.006z" fill="#fff" stroke="#000" stroke-width=".16"/><path d="M17.783 13.763v-1.23c.042-.156.18-.3.276-.324v-1.152c-.15 0-.222.192-.222.192l-.258 1.134v1.374l.204.006z" fill="#fff" stroke="#000" stroke-width=".16"/><path d="M17.945 14.075c-.102-.042-.252-.174-.252-.3V12.24l.072-.12h-2.622l.102.12v1.536a.36.36 0 0 1-.204.3h2.904z" fill="#fff" stroke="#000" stroke-width=".16"/><path d="M15.574 14.074c.102-.042.252-.174.252-.3v-1.458l-.216-.204h1.776l-.216.204v1.458c0 .126.15.258.252.3h-1.848z" fill="#fff" stroke="#000" stroke-width=".16"/><path d="M15.82 14.075c.102-.042.258-.174.258-.3v-1.32l-.144-.198h1.128l-.144.198v1.32c0 .126.15.258.258.3H15.82z" fill="#fff" stroke="#000" stroke-width=".16"/><path d="M16.764 12.257h-.534v1.824h.54l-.006-1.824z" fill="#fff" stroke="#000" stroke-width=".16"/><path d="M17.502 12.76h-.216v.99h.215v-.99zm-1.848 0h-.21v.99h.215l-.006-.99zm2.034-1.668h-.264v1.02h.264v-1.02zm0-.192h-.258v.192h.258V10.9zm-2.136.414h-.367v.78h.367v-.78z" fill="#fff"/><path d="M17.688 11.092h-.264v1.02h.264v-1.02zm0 0h-.258V10.9h.258v.192zm-.186 1.668h-.216v.99h.215v-.99zm-1.848 0h-.21v.99h.215l-.006-.99zm-.102-1.446h-.367v.78h.367v-.78z" stroke="#000" stroke-width=".16" stroke-linejoin="bevel"/><path d="M17.43 12.1v-1.74c-.072 0-.084.259-.252.259-.09 0-.084-.108-.03-.192.042-.078.096-.18.024-.378-.054.15-.186.198-.162.108.042-.162.168-.192.072-.438-.03.204-.162.198-.132.078.036-.138.114-.198.018-.39-.054.222-.12.21-.12.072 0-.204 0-.42-.252-.498 0 0-.018-.18-.114-.18-.09 0-.108.18-.108.18-.258.078-.252.3-.252.498 0 .138-.066.15-.12-.072-.096.192-.018.252.018.39.03.12-.102.126-.132-.078-.096.246.03.276.072.438.024.09-.108.042-.162-.108-.072.198-.018.3.024.378.048.084.06.192-.03.192-.168 0-.18-.252-.252-.252V12.1h1.89zm.414-1.313v1.326h-.15v-1.326c.054-.03.102-.03.15 0z" fill="#fff" stroke="#000" stroke-width=".16"/><path d="M17.832 11.645c-.186.096-.372.21-.42.468h.42v-.468zm-2.592-.396v.864h-.12v-.864c.036-.018.09-.024.12 0z" fill="#fff" stroke="#000" stroke-width=".16"/><path d="M15.12 11.645c.186.09.372.198.42.462h-.42v-.462zm1.236-2.022l-.108-.09v-.12c.036 0 .06.018.09.06a.299.299 0 0 1 .15-.18.3.3 0 0 1 .156.174c.03-.042.048-.048.09-.06v.12l-.108.096h-.27z" fill="#fff" stroke="#000" stroke-width=".16"/><path d="M16.296 9.917l-.048-.114v-.15c.036 0 .06.018.09.06a.299.299 0 0 1 .15-.18.3.3 0 0 1 .156.174c.03-.042.048-.048.09-.054v.15l-.048.114h-.39z" fill="#fff" stroke="#000" stroke-width=".16"/><path d="M16.282 10.313l-.156-.198v-.192c.06 0 .09.03.132.096.042-.138.12-.162.228-.228.114.06.192.09.228.222.048-.066.078-.084.138-.09v.192l-.162.198h-.408z" fill="#fff" stroke="#000" stroke-width=".16"/><path d="M16.241 10.703s-.192-.162-.197-.252v-.21c.072.006.137.024.191.114.049-.174.12-.222.253-.3.137.078.21.126.252.3.06-.09.12-.108.198-.12v.216a.9.9 0 0 1-.198.252h-.498z" fill="#fff" stroke="#000" stroke-width=".16"/><path d="M16.164 11.423s-.264-.282-.27-.396v-.324c.096.012.192.078.264.216.06-.27.156-.456.33-.588.18.132.276.318.336.588.072-.138.162-.204.258-.216v.324c-.018.114-.264.396-.264.396h-.654z" fill="#fff" stroke="#000" stroke-width=".16"/><path d="M16.164 11.85s-.222-.223-.27-.319v-.324c.096.012.192.078.264.21a.842.842 0 0 1 .33-.552c.18.132.276.282.336.552.072-.132.162-.198.258-.21v.324c-.06.096-.264.318-.264.318h-.654z" fill="#fff" stroke="#000" stroke-width=".16"/><path d="M16.072 12.1c.06-.282.12-.492.426-.702.312.21.366.42.432.702h-.858z" fill="#fff" stroke="#000" stroke-width=".16"/><path d="M15.912 12.257v-.408c.144.06.27.138.318.228.048-.228.15-.324.276-.462.126.138.21.24.264.462.048-.09.174-.174.312-.228v.408h-1.17zM4.644 15.563h14.718v.75H4.644v-.75zm-.39.75h15.498v.75H4.254v-.75zm1.164-1.878h13.164v.486H5.418v-.486z" fill="#fff" stroke="#000" stroke-width=".16"/><path d="M5.035 14.92H18.98v.636H5.035v-.635zm.612-.857h12.72v.371H5.647v-.371z" fill="#fff" stroke="#000" stroke-width=".16"/><path d="M7.027 14.063h.96v3h-.96v-3z" fill="#fff" stroke="#000" stroke-width=".16"/><path d="M7.24 14.063h.534v3h-.54l.006-3zm4.26 0h.96v3h-.96v-3z" fill="#fff" stroke="#000" stroke-width=".16"/><path d="M11.723 14.063h.54v3h-.54v-3zm4.29 0h.96v3h-.96v-3z" fill="#fff" stroke="#000" stroke-width=".16"/><path d="M16.223 14.063h.54v3h-.54v-3z" fill="#fff" stroke="#000" stroke-width=".16"/><path d="M6.223 13.757h11.58M7.23 16.685h.552m-.552-.378h.552m-.552-.372h.552m-.552-.378h.552m-.552-.372h.552m-.552-.378h.552m-.552-.372h.552m3.948 2.25h.516m-.516-.378h.516m-.516-.372h.516m-.516-.378h.516m-.516-.372h.516m-.516-.378h.516m-.516-.372h.516m3.972 2.25h.552m-.552-.378h.552m-.552-.372h.552m-.552-.378h.552m-.552-.372h.552m-.552-.378h.552m-.552-.372h.552" stroke="#000" stroke-width=".16"/></g><defs><clipPath id="a"><rect width="24" height="24" rx="12" fill="#fff"/></clipPath></defs></svg>