<svg width="24" height="24" viewBox="0 0 24 24" fill="none" xmlns="http://www.w3.org/2000/svg"><g clip-path="url(#a)"><path d="M0 0h24v24H0V0z" fill="#EE1C25"/><path d="M11.2 7.051l-6.12 3.96 2.52-6.48 2.16 6.48L4 7.051h7.2zm1.491-3.371l2.181 1.068-2.283.392 1.48-1.728-.142 2.324L12.69 3.68zm2.779 2.117l1.594 1.833-2.257-.527 2.037-1.017-1.036 2.087-.338-2.376zm.504 3.483l.707 2.327-1.846-1.404 2.276-.096-1.8 1.482.663-2.308zm-1.904 2.49l-.246 2.416-1.16-2.005 2.135.789-2.23.672 1.5-1.872z" fill="#FF0"/></g><defs><clipPath id="a"><rect width="24" height="24" rx="12" fill="#fff"/></clipPath></defs></svg>