<svg width="237" height="70" viewBox="0 0 237 70" fill="none" xmlns="http://www.w3.org/2000/svg"><path d="M36.68 38.388v-10.61c-.037-1.408-.555-2.297-1.536-3.075-.982-.796-1.889-1.185-3.296-1.204h-.537c-1.444.038-2.389.5-3.37 1.426-.981.908-1.481 1.834-1.518 3.204v9.815c.037 1.37.537 2.296 1.518 3.204.981.907 1.907 1.388 3.37 1.425h.537c1.389-.018 2.314-.425 3.296-1.222.98-.796 1.5-1.63 1.536-2.963zm-.63 7.723a7.56 7.56 0 0 0-.518.388l-.055.037c-.037.019-.074.056-.111.075-.037.037-.074.055-.111.074-.037.018-.074.055-.111.074-.037.018-.075.055-.111.074-.038.018-.093.055-.13.074-.037.018-.093.055-.13.074-.037.018-.092.055-.13.074-.036.019-.092.037-.129.074a1.28 1.28 0 0 1-.148.056 1.318 1.318 0 0 1-.148.055c-.056.019-.093.037-.148.056a1.275 1.275 0 0 1-.148.055c-.056.019-.093.037-.149.056-.055.018-.092.037-.148.037-.055.018-.092.037-.148.037-.055.018-.092.018-.148.037-.037.018-.093.018-.13.037-.037 0-.092.019-.13.019-.036 0-.092.018-.129.018-.555.093-1.11.148-1.703.148h-.426c-2.814-.074-5.166-1-7.055-2.778-1.888-1.777-2.87-4.018-2.944-6.703V27.685c.075-2.686 1.056-4.926 2.944-6.704 1.89-1.778 4.24-2.704 7.055-2.778h.555c.537 0 1.037.037 1.5.111l.13.019c.037 0 .092.018.148.018.056 0 .093.019.148.037.056.019.093.019.148.037.056.019.093.019.148.037.056.019.093.019.148.037.056.019.093.038.149.038.037.018.092.037.148.055.055.018.092.037.148.056.055.018.092.037.148.055.056.019.093.037.148.056.037.018.093.037.13.055.037.019.092.037.13.074.036.019.092.037.129.074.037.019.074.056.13.075l.036.018.056.037.056.037.055.037.056.037.055.037.056.037.055.037.056.037.037.037.037.037.037.037.037.037.037.038.037.037.037.036.037.038.037.037.074.074a.14.14 0 0 0 .074.037c.037.018.074.018.093.037.037 0 .074.018.111.018.037 0 .074 0 .111-.018a.141.141 0 0 0 .093-.037c.037-.019.055-.037.092-.056a.258.258 0 0 0 .074-.055c.019-.019.037-.056.056-.075a.39.39 0 0 0 .055-.092c.019-.037.019-.056.037-.093 0-.037.019-.074.019-.11 0-.353-.019-.816.389-.945.24-.074.518-.037.759-.037h3.573c.37 0 .908-.093 1.074.352.111.333.037 1.018.037 1.37v22.556c0 2 .074 4.037-.148 6.018-.63 5.556-3.407 10.278-9.295 11.315-3.555.63-7.11-.648-9.85-2.908-.333-.277-1.037-.74-1-1.222a.818.818 0 0 1 .204-.444s2.277-2.408 2.444-2.63c.167-.185.389-.444.648-.444.352 0 .74.333 1.389.722 1.11.648 2.296 1.24 3.573 1.444.796.111 1.667 0 2.444-.24 2.981-.963 3.815-4.741 3.981-7.686v-.166c0-.019-.018-.037-.018-.056 0-.018-.019-.037-.019-.055 0-.019-.019-.037-.019-.037 0-.019-.018-.019-.018-.037 0-.019-.019-.019-.037-.037-.019 0-.019-.019-.037-.038l-.037-.036c-.019 0-.019-.019-.037-.038-.019 0-.019-.018-.037-.018-.019 0-.037-.019-.037-.019-.019 0-.037-.018-.056-.018-.018 0-.037 0-.055-.019h-.222c-.019 0-.038 0-.056.019-.018 0-.037.018-.037.018-.074.075-.13.093-.148.111zm46.716.999v-3.889c0-.222-.056-.388-.186-.5-.11-.11-.277-.148-.462-.148H71.434c-.26 0-.444-.055-.555-.13a.499.499 0 0 1-.167-.37c0-.148.055-.352.13-.463l11.72-22.11c.037-.075.055-.149.093-.223a1.11 1.11 0 0 0 .037-.222c-.019-.334-.241-.5-.704-.519h-19.2c-.445-.018-.649.204-.649.648v3.89c-.018.444.204.666.648.647h10.017c.222 0 .407.037.537.13.13.093.167.222.185.389a.904.904 0 0 1-.037.222.618.618 0 0 1-.092.222L61.565 46.795c-.037.075-.055.149-.092.223-.019.092-.038.166-.038.222.02.333.241.5.723.518h19.978c.222 0 .389-.055.5-.148a.897.897 0 0 0 .13-.5zM49.585 14.778c.018.222.074.37.185.481.13.13.315.185.593.204h4.036c.26 0 .463-.074.593-.204a.67.67 0 0 0 .185-.481v-4.593c0-.26-.074-.482-.204-.593-.13-.13-.315-.185-.593-.203h-.314a.83.83 0 0 0-.685.296l-3.389 3.778-.166.185c-.185.204-.26.389-.26.611v.389c0 .056.019.13.019.13zm5.555 4.425c0-.223-.056-.408-.167-.519-.111-.11-.296-.166-.537-.166h-4.203c-.24 0-.426.074-.537.203a.692.692 0 0 0-.167.482v27.852c0 .222.056.407.167.518.111.111.296.167.537.167h4.203c.24 0 .426-.074.537-.204a.692.692 0 0 0 .166-.481V19.203zM97.41 47.24a.373.373 0 0 0-.296-.13H94.54l2.907-5.592a.507.507 0 0 0 .074-.26.406.406 0 0 0-.13-.314.446.446 0 0 0-.333-.13h-2.925c-.13 0-.241.037-.297.13a.442.442 0 0 0-.092.259c0 .092.037.185.092.26a.378.378 0 0 0 .297.129h2.425l-2.907 5.574a.57.57 0 0 0-.055.24c0 .13.037.241.11.334a.407.407 0 0 0 .334.148h3.092c.13 0 .222-.037.296-.13a.442.442 0 0 0 .093-.259.988.988 0 0 0-.111-.26zm5.018-3.945c0-.13-.037-.222-.13-.296a.347.347 0 0 0-.259-.093.44.44 0 0 0-.259.093.374.374 0 0 0-.13.296v3.019c0 .24-.093.444-.259.611a.853.853 0 0 1-.63.26h-.092a.838.838 0 0 1-.611-.26.839.839 0 0 1-.26-.611v-3.019c0-.13-.037-.222-.13-.296a.347.347 0 0 0-.258-.093.443.443 0 0 0-.26.093.373.373 0 0 0-.13.296v3.019c0 .296.038.537.13.74.093.204.204.371.352.5.148.13.334.241.519.297.203.074.407.093.629.093h.093c.185 0 .333-.019.5-.075.148-.055.277-.13.37-.222.018.111.074.186.148.223a.372.372 0 0 0 .241.074.443.443 0 0 0 .259-.093.363.363 0 0 0 .13-.278v-4.278h.037zm5.24 3.186c0-.334-.074-.593-.204-.778a1.447 1.447 0 0 0-.5-.445 2.33 2.33 0 0 0-.63-.24c-.24-.056-.444-.111-.648-.148a2.038 2.038 0 0 1-.5-.204.46.46 0 0 1-.203-.39v-.036c0-.148.092-.278.241-.389.148-.111.37-.167.648-.167h.037c.24 0 .407.037.537.093.129.074.24.13.351.185a.494.494 0 0 0 .223.056c.111 0 .203-.037.259-.111a.366.366 0 0 0-.037-.556 1 1 0 0 0-.185-.13c-.074-.055-.167-.092-.297-.148-.111-.037-.24-.092-.389-.11a2.013 2.013 0 0 0-.481-.056h.019a1.96 1.96 0 0 0-.537.074 1.493 1.493 0 0 0-.537.222c-.167.11-.315.24-.426.407-.111.167-.167.37-.167.611 0 .315.074.574.204.741.129.167.296.315.481.407.204.093.408.167.648.204.223.037.445.093.648.167.186.055.352.148.5.26a.61.61 0 0 1 .204.48v.038c0 .166-.093.333-.259.463-.167.148-.408.222-.722.222h-.056c-.185 0-.389-.074-.592-.204a1.936 1.936 0 0 1-.5-.444.602.602 0 0 0-.167-.148.664.664 0 0 0-.185-.037.377.377 0 0 0-.278.11.394.394 0 0 0-.129.278c0 .019.018.093.055.186.074.148.185.296.315.425.129.13.278.241.426.315.148.093.314.149.5.204.166.056.333.074.5.074h.055c.204 0 .426-.037.63-.093a1.66 1.66 0 0 0 .574-.277c.166-.111.314-.26.407-.445.111-.185.148-.389.148-.63v-.036h.019zm5.406.852c-.055-.075-.129-.112-.259-.149-.185-.037-.259-.148-.259-.333v-2.37c0-.223-.037-.426-.13-.611a1.48 1.48 0 0 0-.333-.5 1.387 1.387 0 0 0-.519-.334 1.814 1.814 0 0 0-.629-.13h-.074c-.13 0-.278.02-.426.038a1.946 1.946 0 0 0-.426.148 1.79 1.79 0 0 0-.389.296c-.129.13-.222.278-.296.463a.536.536 0 0 0-.037.185c0 .111.037.204.13.26a.44.44 0 0 0 .259.092.538.538 0 0 0 .185-.037.442.442 0 0 0 .148-.167 1.18 1.18 0 0 1 .333-.389c.13-.092.297-.13.5-.13h.074a.94.94 0 0 1 .593.186c.166.13.241.333.241.648v.093c0 .037-.019.055-.019.074-.037.055-.13.092-.278.13-.148.037-.314.055-.5.092-.185.037-.388.074-.611.13a2.35 2.35 0 0 0-.592.24 1.237 1.237 0 0 0-.445.426c-.111.167-.166.39-.166.667v.13c0 .24.055.444.148.63.093.184.222.333.37.462.148.13.334.222.519.278.203.056.407.093.611.093h.092c.426 0 .796-.13 1.111-.408.074.093.167.185.259.24.112.075.26.112.426.15h.074c.13 0 .223-.038.278-.112a.452.452 0 0 0 .093-.278c.018-.055 0-.13-.056-.203zm-1.296-1.02a.843.843 0 0 1-.259.612.872.872 0 0 1-.611.26h-.093a.985.985 0 0 1-.629-.204.608.608 0 0 1-.241-.519v-.074c0-.185.056-.315.185-.407a1.35 1.35 0 0 1 .463-.223c.185-.055.389-.092.593-.13.222-.036.425-.073.611-.11v.796h-.019zm8.98-1.777c0-.278-.037-.518-.129-.74a1.483 1.483 0 0 0-.371-.52 1.382 1.382 0 0 0-.537-.295 1.785 1.785 0 0 0-.629-.093h-.093c-.259 0-.5.056-.703.148-.223.111-.408.24-.556.426-.148-.185-.352-.315-.555-.426a1.507 1.507 0 0 0-.704-.148h-.093c-.185 0-.351.019-.499.074-.149.056-.278.13-.389.222-.019-.11-.074-.185-.148-.222a.374.374 0 0 0-.241-.074.446.446 0 0 0-.278.111.403.403 0 0 0-.129.296v4.278c0 .13.037.222.129.297a.443.443 0 0 0 .259.092.443.443 0 0 0 .26-.093.373.373 0 0 0 .129-.296v-3.11c0-.242.093-.427.278-.575a.956.956 0 0 1 .611-.222h.093c.24 0 .444.074.629.24a.85.85 0 0 1 .259.63v3c0 .13.037.24.13.297a.347.347 0 0 0 .259.092.44.44 0 0 0 .259-.092.374.374 0 0 0 .13-.297v-3a.85.85 0 0 1 .259-.63.852.852 0 0 1 .63-.259h.092a.9.9 0 0 1 .63.223c.166.148.24.351.24.648v3.037c0 .13.038.222.13.296a.443.443 0 0 0 .259.093.446.446 0 0 0 .26-.093.373.373 0 0 0 .129-.296v-3.019zm7.851 0a1.88 1.88 0 0 0-.13-.74 1.48 1.48 0 0 0-.37-.52 1.448 1.448 0 0 0-.519-.295 1.785 1.785 0 0 0-.629-.093h-.093a1.594 1.594 0 0 0-1.259.574 1.59 1.59 0 0 0-.555-.426c-.204-.11-.445-.148-.704-.148h-.111c-.185 0-.352.019-.5.074-.148.056-.278.13-.37.222-.019-.11-.074-.185-.148-.222a.355.355 0 0 0-.222-.074.376.376 0 0 0-.278.111.404.404 0 0 0-.13.296v4.278c0 .13.037.222.13.297a.44.44 0 0 0 .259.092.44.44 0 0 0 .259-.093.374.374 0 0 0 .13-.296v-3.11a.73.73 0 0 1 .259-.575.921.921 0 0 1 .611-.222h.093a.85.85 0 0 1 .888.87v3c0 .13.037.24.13.297a.347.347 0 0 0 .259.092.44.44 0 0 0 .259-.092.374.374 0 0 0 .13-.297v-3c0-.26.093-.463.259-.63a.853.853 0 0 1 .63-.259h.092c.26 0 .463.074.63.223.167.148.241.351.241.648v3.037c0 .13.037.222.129.296a.443.443 0 0 0 .259.093.444.444 0 0 0 .26-.093.373.373 0 0 0 .129-.296v-3.019h-.018zm5.129.019c0-.241-.037-.463-.13-.667a2.084 2.084 0 0 0-.352-.537 1.97 1.97 0 0 0-.518-.352 1.842 1.842 0 0 0-.648-.13h-.111a1.42 1.42 0 0 0-.63.13 2.07 2.07 0 0 0-.537.352 1.986 1.986 0 0 0-.352.519 1.838 1.838 0 0 0-.129.648v1.759c0 .24.037.444.129.648.093.204.204.37.352.519.148.148.333.259.537.351.204.093.407.13.63.13h.111c.351 0 .648-.092.925-.278.26-.185.463-.407.574-.703a.396.396 0 0 0-.092-.463.377.377 0 0 0-.278-.111.313.313 0 0 0-.185.055.384.384 0 0 0-.148.185c-.074.148-.167.26-.296.37-.13.112-.297.149-.5.149h-.111a.838.838 0 0 1-.611-.26.84.84 0 0 1-.26-.61v-.52h2.241a.375.375 0 0 0 .277-.11.374.374 0 0 0 .112-.278v-.796zm-.778.518h-1.852v-.518a.88.88 0 0 1 .26-.63.912.912 0 0 1 .629-.26h.111c.222 0 .426.093.593.26a.884.884 0 0 1 .259.63v.518zm5.869-.518c0-.278-.037-.519-.129-.741-.093-.204-.204-.389-.352-.519a1.452 1.452 0 0 0-.518-.296 1.796 1.796 0 0 0-.63-.093h-.093c-.166 0-.333.02-.5.075-.148.055-.277.13-.37.222-.018-.111-.074-.185-.148-.222a.409.409 0 0 0-.241-.075.375.375 0 0 0-.277.112.403.403 0 0 0-.13.296v4.278c0 .13.037.222.13.296a.44.44 0 0 0 .259.093.443.443 0 0 0 .259-.093.373.373 0 0 0 .13-.296v-3.019c0-.24.092-.444.259-.61a.84.84 0 0 1 .611-.26h.092c.241 0 .463.092.63.26.167.166.259.37.259.61v3.019c0 .13.037.222.13.296a.453.453 0 0 0 .278.093.443.443 0 0 0 .259-.093c.074-.055.111-.167.111-.296v-3.037h-.019zm5.518 2.778c-.056-.075-.13-.112-.241-.149-.185-.037-.259-.148-.259-.333v-2.37a1.35 1.35 0 0 0-.129-.611 1.498 1.498 0 0 0-.852-.834 1.824 1.824 0 0 0-.63-.13h-.074a3.63 3.63 0 0 0-.426.038 1.964 1.964 0 0 0-.426.148 1.805 1.805 0 0 0-.388.296 1.66 1.66 0 0 0-.297.463c-.018.056-.037.111-.037.185 0 .111.037.204.13.26a.443.443 0 0 0 .259.092c.074 0 .13-.018.204-.037a.442.442 0 0 0 .148-.167 1.18 1.18 0 0 1 .333-.389c.13-.092.297-.13.5-.13h.074c.222 0 .426.056.593.186.166.13.24.333.24.648v.093c0 .037 0 .055-.018.074-.037.055-.13.092-.278.13-.148.037-.315.055-.5.092s-.389.074-.611.13a2.35 2.35 0 0 0-.592.24 1.4 1.4 0 0 0-.445.426c-.111.167-.166.39-.166.667v.13c0 .24.055.444.148.63.092.184.222.333.37.462.148.13.333.222.537.278.185.056.407.093.611.093h.093c.426 0 .796-.13 1.111-.408a.806.806 0 0 0 .259.24c.111.075.259.112.426.15h.074c.129 0 .222-.038.278-.112a.458.458 0 0 0 .092-.278c-.037-.055-.074-.13-.111-.203zm-1.296-1.02a.843.843 0 0 1-.259.612.872.872 0 0 1-.611.26h-.093a.985.985 0 0 1-.629-.204.608.608 0 0 1-.241-.519v-.074c0-.185.055-.315.185-.407a1.35 1.35 0 0 1 .463-.223c.185-.055.389-.092.592-.13.223-.036.426-.073.611-.11v.796h-.018zm5.462-2.907a.988.988 0 0 0-.481-.388 1.68 1.68 0 0 0-.593-.111c-.129 0-.241 0-.333.037a.615.615 0 0 0-.222.074.27.27 0 0 0-.167.11.44.44 0 0 0-.148-.166c-.056-.037-.13-.037-.204-.037a.443.443 0 0 0-.277.111c-.093.074-.13.167-.13.297v4.259c0 .13.037.24.13.296a.387.387 0 0 0 .277.093.44.44 0 0 0 .259-.093c.093-.055.13-.167.13-.296v-3.185c0-.074 0-.167.019-.241a.57.57 0 0 1 .092-.222.619.619 0 0 1 .204-.167.969.969 0 0 1 .37-.056c.13 0 .222.019.296.074.074.056.13.093.167.149a.458.458 0 0 0 .315.148c.111 0 .185-.037.278-.111a.366.366 0 0 0 .111-.26.57.57 0 0 0-.093-.314zm5.073 1.149a1.57 1.57 0 0 0-.129-.648 1.721 1.721 0 0 0-.352-.519 1.43 1.43 0 0 0-.519-.352 1.555 1.555 0 0 0-.648-.13h-.074c-.185 0-.351.02-.518.093a.704.704 0 0 0-.37.26v-2.093c0-.13-.037-.222-.13-.296a.443.443 0 0 0-.259-.093.44.44 0 0 0-.259.093.404.404 0 0 0-.13.296v6.426c0 .13.037.222.13.278a.44.44 0 0 0 .259.092.37.37 0 0 0 .24-.074c.075-.055.13-.13.13-.222a.934.934 0 0 0 .333.204c.149.055.334.092.556.092h.092c.223 0 .445-.037.648-.13.204-.092.371-.203.519-.351.148-.148.278-.315.352-.519a1.51 1.51 0 0 0 .129-.648v-1.76zm-.777 1.759a.84.84 0 0 1-.26.611.85.85 0 0 1-.629.26h-.093a.889.889 0 0 1-.611-.223c-.185-.148-.259-.333-.259-.593v-1.907c0-.24.074-.426.259-.574a.889.889 0 0 1 .611-.222h.093c.241 0 .463.092.629.26.167.166.26.37.26.61v1.778zm5.851-1.76c0-.24-.037-.462-.13-.666a2.084 2.084 0 0 0-.352-.537 1.794 1.794 0 0 0-.537-.352 1.833 1.833 0 0 0-.648-.13h-.111c-.222 0-.444.038-.629.13a1.706 1.706 0 0 0-.519.352 1.61 1.61 0 0 0-.352.519 1.511 1.511 0 0 0-.129.648v1.759c0 .24.037.444.129.648.093.204.204.37.352.519.148.148.333.259.519.351.203.093.407.13.629.13h.111a1.6 1.6 0 0 0 .926-.278c.259-.185.463-.407.574-.703.037-.056.037-.111.037-.167a.393.393 0 0 0-.13-.296.375.375 0 0 0-.277-.111.423.423 0 0 0-.204.055.384.384 0 0 0-.148.185c-.074.148-.167.26-.296.37-.13.112-.297.149-.5.149h-.111a.838.838 0 0 1-.611-.26.84.84 0 0 1-.26-.61v-.52h2.241a.375.375 0 0 0 .277-.11.374.374 0 0 0 .112-.278v-.796h.037zm-.778.52h-1.852v-.52a.88.88 0 0 1 .26-.629.849.849 0 0 1 .629-.26h.111c.222 0 .426.093.593.26a.884.884 0 0 1 .259.63v.518zm3.296-3.927c0-.13-.037-.222-.13-.296a.443.443 0 0 0-.259-.093.44.44 0 0 0-.259.093.404.404 0 0 0-.13.296v.223c0 .13.037.222.13.296a.44.44 0 0 0 .259.092.443.443 0 0 0 .259-.092.404.404 0 0 0 .13-.296v-.223zm0 2.148c0-.13-.037-.222-.13-.296a.347.347 0 0 0-.259-.093.44.44 0 0 0-.259.093.374.374 0 0 0-.13.296v4.278c0 .13.037.222.13.297a.44.44 0 0 0 .259.092.443.443 0 0 0 .259-.093.374.374 0 0 0 .13-.296v-4.278zm4.055 4.019a.335.335 0 0 0-.278-.13.734.734 0 0 1-.407-.166.529.529 0 0 1-.186-.408v-2.889h.556c.13 0 .222-.037.296-.13a.44.44 0 0 0 .093-.258.44.44 0 0 0-.093-.26.401.401 0 0 0-.296-.13h-.556v-1.777c0-.13-.037-.222-.129-.296a.443.443 0 0 0-.259-.093.444.444 0 0 0-.26.093.403.403 0 0 0-.129.296v1.778h-.352c-.13 0-.222.037-.296.13a.347.347 0 0 0-.093.259.44.44 0 0 0 .093.259c.055.074.166.13.296.13h.352v2.907c0 .185.037.352.092.518.074.167.167.315.297.426.129.13.259.222.425.278.167.074.334.111.519.111.13 0 .241-.037.296-.111a.44.44 0 0 0 .093-.26.358.358 0 0 0-.074-.277zm5.795.5a4.913 4.913 0 0 1-.444-.889 6.238 6.238 0 0 1-.297-1.092 6.73 6.73 0 0 1-.111-1.241c0-.426.037-.834.111-1.222a6.236 6.236 0 0 1 .723-2c.166-.26.333-.482.499-.649a.324.324 0 0 0 .112-.24.322.322 0 0 0-.13-.26.442.442 0 0 0-.259-.11.322.322 0 0 0-.259.129 4.66 4.66 0 0 0-.593.796 5.324 5.324 0 0 0-.481 1.037c-.13.37-.241.778-.334 1.204-.074.426-.129.87-.129 1.352 0 .463.037.926.129 1.37.074.445.185.852.334 1.24.148.371.296.723.5 1.038.185.315.388.574.611.778.074.074.166.13.259.13a.332.332 0 0 0 .277-.13.3.3 0 0 0 .13-.26c0-.092-.037-.166-.13-.259-.185-.26-.351-.463-.518-.722zm5.832-3.389c0-.111-.037-.185-.129-.278a.377.377 0 0 0-.278-.11h-1.463c-.129 0-.222.036-.296.129a.446.446 0 0 0-.092.26c0 .092.037.184.092.258.074.074.167.13.296.13h1.074v1.185a1.3 1.3 0 0 1-.092.463 1.04 1.04 0 0 1-.259.37 1.347 1.347 0 0 1-.371.26 1.287 1.287 0 0 1-.463.092h-.092a1.3 1.3 0 0 1-.463-.092 1.031 1.031 0 0 1-.37-.26 1.313 1.313 0 0 1-.26-.37 1.284 1.284 0 0 1-.092-.444v-3.315c0-.148.037-.297.092-.445a1.03 1.03 0 0 1 .26-.37c.111-.111.222-.185.37-.26a1.3 1.3 0 0 1 .463-.092h.092c.334 0 .611.093.796.297.186.185.315.425.371.722a.404.404 0 0 0 .148.259.372.372 0 0 0 .241.074.443.443 0 0 0 .259-.093.393.393 0 0 0 .129-.277v-.056a2.025 2.025 0 0 0-.222-.667 1.678 1.678 0 0 0-.426-.518 2.085 2.085 0 0 0-.592-.352 1.825 1.825 0 0 0-.704-.13h-.092c-.259 0-.519.056-.759.149a2.41 2.41 0 0 0-.63.407c-.167.167-.315.37-.407.611a1.74 1.74 0 0 0-.148.76v3.314c0 .278.055.519.148.76.092.24.24.444.407.61.167.167.389.315.63.408.24.093.5.148.759.148h.092c.278 0 .519-.056.759-.148.241-.093.445-.24.63-.407a1.75 1.75 0 0 0 .407-.612 1.74 1.74 0 0 0 .148-.759v-1.61h.037zm2.833-3.278c0-.13-.037-.222-.129-.296a.443.443 0 0 0-.259-.093.443.443 0 0 0-.26.093.403.403 0 0 0-.129.296v6.426c0 .13.037.222.129.297a.443.443 0 0 0 .26.092.443.443 0 0 0 .259-.093.373.373 0 0 0 .129-.296v-6.426zm5.685 6.093a.404.404 0 0 0-.297-.13h-2.573l2.907-5.592a.512.512 0 0 0 .074-.26.405.405 0 0 0-.13-.314.446.446 0 0 0-.333-.13H182.1c-.129 0-.24.037-.296.13a.445.445 0 0 0-.092.259c0 .092.037.185.092.26a.377.377 0 0 0 .296.129h2.426l-2.907 5.574a.572.572 0 0 0-.056.24c0 .13.037.241.112.334a.406.406 0 0 0 .333.148h3.092c.13 0 .222-.037.296-.13a.44.44 0 0 0 .093-.259.442.442 0 0 0-.111-.26zm3.536-4.019a8.376 8.376 0 0 0-.315-1.222 5.324 5.324 0 0 0-.481-1.037 3.347 3.347 0 0 0-.611-.778c-.093-.074-.167-.13-.259-.13a.44.44 0 0 0-.259.112.323.323 0 0 0-.13.26c0 .092.037.166.111.24.185.167.352.389.5.648.167.26.296.574.426.907.129.334.222.704.296 1.093.074.389.111.796.111 1.222 0 .445-.037.852-.111 1.24-.074.39-.167.76-.296 1.093-.13.334-.259.63-.426.89-.167.259-.333.48-.519.648a.359.359 0 0 0-.111.24c0 .093.037.186.13.26.093.074.185.13.278.13.092 0 .166-.038.259-.13a3.35 3.35 0 0 0 .611-.778 6.75 6.75 0 0 0 .5-1.037 6.42 6.42 0 0 0 .333-1.241c.074-.444.13-.889.13-1.37-.056-.37-.093-.815-.167-1.26zm8.11 1.204c0-.111-.037-.185-.111-.278a.377.377 0 0 0-.278-.11h-1.463c-.129 0-.222.036-.296.129a.446.446 0 0 0-.092.26c0 .092.037.184.092.258.074.074.167.13.296.13h1.074v1.185a1.3 1.3 0 0 1-.092.463 1.04 1.04 0 0 1-.259.37 1.347 1.347 0 0 1-.371.26 1.287 1.287 0 0 1-.463.092h-.111a1.29 1.29 0 0 1-.463-.092 1.031 1.031 0 0 1-.37-.26 1.33 1.33 0 0 1-.259-.37 1.263 1.263 0 0 1-.093-.444v-3.315c0-.148.037-.297.093-.445.055-.148.148-.259.259-.37.111-.111.222-.185.37-.26a1.29 1.29 0 0 1 .463-.092h.111c.334 0 .593.093.797.297.203.185.314.425.37.722a.404.404 0 0 0 .148.259.372.372 0 0 0 .241.074.548.548 0 0 0 .277-.093.394.394 0 0 0 .13-.277v-.056a2.025 2.025 0 0 0-.222-.667 1.678 1.678 0 0 0-.426-.518 2.09 2.09 0 0 0-.593-.352 1.82 1.82 0 0 0-.703-.13h-.111c-.259 0-.519.056-.759.149a2.06 2.06 0 0 0-.611.407c-.167.167-.315.37-.408.611a1.74 1.74 0 0 0-.148.76v3.314c0 .278.056.519.148.76.093.24.241.444.408.61.166.167.388.315.611.408.24.093.5.148.759.148h.111c.259 0 .518-.056.759-.148.241-.093.444-.24.63-.407.166-.167.314-.37.407-.612a1.74 1.74 0 0 0 .148-.759v-1.61zm7.906.111c0-.278-.037-.518-.129-.74a1.483 1.483 0 0 0-.371-.52 1.382 1.382 0 0 0-.537-.295 1.785 1.785 0 0 0-.629-.093h-.093c-.259 0-.5.056-.703.148-.223.111-.408.24-.556.426a1.59 1.59 0 0 0-.555-.426 1.507 1.507 0 0 0-.704-.148h-.093c-.185 0-.351.019-.499.074-.149.056-.278.13-.371.222-.018-.11-.074-.185-.148-.222a.372.372 0 0 0-.241-.074c-.111 0-.185.037-.277.111a.404.404 0 0 0-.13.296v4.278c0 .13.037.222.13.297a.44.44 0 0 0 .259.092.443.443 0 0 0 .259-.093.374.374 0 0 0 .13-.296v-3.11a.73.73 0 0 1 .259-.575.956.956 0 0 1 .611-.222h.093a.85.85 0 0 1 .888.87v3c0 .13.037.24.13.297a.347.347 0 0 0 .259.092.44.44 0 0 0 .259-.092.374.374 0 0 0 .13-.297v-3c0-.26.093-.463.259-.63a.852.852 0 0 1 .63-.259h.092a.9.9 0 0 1 .63.223c.166.148.24.351.24.648v3.037c0 .13.038.222.13.296a.443.443 0 0 0 .259.093.446.446 0 0 0 .26-.093.373.373 0 0 0 .129-.296v-3.019zm5.296.019c0-.222-.037-.445-.13-.648a1.721 1.721 0 0 0-.352-.519 1.435 1.435 0 0 0-.518-.352 1.56 1.56 0 0 0-.648-.13h-.074c-.185 0-.352.02-.519.093a.855.855 0 0 0-.389.26v-2.093c0-.13-.037-.222-.129-.296a.443.443 0 0 0-.259-.093.444.444 0 0 0-.26.093.403.403 0 0 0-.129.296v6.426c0 .13.037.222.129.278a.443.443 0 0 0 .26.092.37.37 0 0 0 .24-.074c.074-.055.13-.13.13-.222a.934.934 0 0 0 .333.204c.148.055.333.092.556.092h.092c.222 0 .445-.037.63-.13.203-.092.37-.203.537-.351a1.43 1.43 0 0 0 .351-.519c.093-.204.13-.407.13-.648v-1.76h.019zm-.778 1.759c0 .24-.093.444-.259.611a.853.853 0 0 1-.63.26h-.092a.885.885 0 0 1-.611-.223.743.743 0 0 1-.26-.593v-1.907c0-.24.093-.426.26-.574a.885.885 0 0 1 .611-.222h.092c.241 0 .463.092.63.26a.84.84 0 0 1 .259.61v1.778zm6.684-5.167c0-.13-.037-.222-.129-.296a.446.446 0 0 0-.26-.093.443.443 0 0 0-.259.093.404.404 0 0 0-.13.296v2.704h-2.425v-2.704c0-.13-.037-.222-.13-.296a.44.44 0 0 0-.259-.093.443.443 0 0 0-.259.093.404.404 0 0 0-.13.296v6.426c0 .13.037.222.13.297a.443.443 0 0 0 .259.092.44.44 0 0 0 .259-.093.374.374 0 0 0 .13-.296V44.63h2.425v2.944c0 .13.037.24.13.297a.443.443 0 0 0 .259.092.446.446 0 0 0 .26-.093c.074-.055.129-.148.129-.296v-6.426zM95.856 29.684a.373.373 0 0 0-.297-.13c-.185 0-.37.038-.537.112a1.692 1.692 0 0 0-.425.278c-.13.11-.204.259-.278.425a1.722 1.722 0 0 0-.093.538v.814h-.222c-.13 0-.222.037-.296.13a.443.443 0 0 0-.093.26c0 .092.037.184.093.259.074.074.166.13.296.13h.222v3.87c0 .13.037.222.13.296a.442.442 0 0 0 .26.092.442.442 0 0 0 .258-.092c.074-.056.13-.148.13-.296V32.5h.481c.13 0 .222-.038.297-.13a.443.443 0 0 0 .092-.26.443.443 0 0 0-.092-.259.373.373 0 0 0-.297-.13h-.481v-.814c0-.149.055-.297.148-.408a.478.478 0 0 1 .389-.166c.13 0 .222-.038.296-.13a.346.346 0 0 0 .093-.26.275.275 0 0 0-.074-.259zm4.554.26c0-.13-.037-.223-.129-.297a.39.39 0 0 0-.278-.092.442.442 0 0 0-.26.092.373.373 0 0 0-.129.297v.222c0 .13.037.222.13.296a.346.346 0 0 0 .259.093.44.44 0 0 0 .259-.093.374.374 0 0 0 .13-.296v-.222h.018zm-1.888 0c0-.13-.037-.223-.13-.297a.347.347 0 0 0-.259-.092.442.442 0 0 0-.26.092.373.373 0 0 0-.129.297v.222c0 .13.037.222.13.296a.347.347 0 0 0 .259.093.443.443 0 0 0 .26-.093.373.373 0 0 0 .129-.296v-.222zm2.277 2.148c0-.13-.037-.223-.129-.297a.444.444 0 0 0-.26-.092.443.443 0 0 0-.259.092.403.403 0 0 0-.129.297v3.018a.84.84 0 0 1-.26.611.851.851 0 0 1-.63.26h-.092a.84.84 0 0 1-.61-.26.84.84 0 0 1-.26-.61v-3.02c0-.129-.037-.222-.13-.296a.443.443 0 0 0-.259-.092.443.443 0 0 0-.259.092.403.403 0 0 0-.13.297v3.018c0 .297.038.537.13.741.093.204.204.37.352.5s.333.24.518.296c.204.056.408.093.63.093h.092c.185 0 .352-.019.5-.074.167-.056.278-.13.389-.222.019.11.074.185.148.222a.372.372 0 0 0 .241.074.44.44 0 0 0 .259-.093.395.395 0 0 0 .13-.277v-4.278h.018zm4.37.11a.989.989 0 0 0-.481-.388 1.681 1.681 0 0 0-.593-.111c-.13 0-.259.018-.333.037a.617.617 0 0 0-.222.074.27.27 0 0 0-.167.111c-.037-.074-.074-.13-.148-.167-.056-.037-.13-.037-.185-.037a.445.445 0 0 0-.278.111.332.332 0 0 0-.13.278v4.26c0 .13.037.24.13.296a.443.443 0 0 0 .259.092.44.44 0 0 0 .259-.092.404.404 0 0 0 .13-.296v-3.186c0-.074 0-.166.019-.24a.569.569 0 0 1 .092-.223c.056-.055.111-.11.204-.166a.966.966 0 0 1 .37-.056c.13 0 .222.019.296.074.074.056.13.093.167.13a.458.458 0 0 0 .315.148.336.336 0 0 0 .259-.111.366.366 0 0 0 .111-.26c.019-.092-.018-.185-.074-.277zm5.832-2.258c0-.13-.037-.223-.129-.297-.074-.074-.167-.092-.278-.092a.44.44 0 0 0-.259.092.373.373 0 0 0-.13.297v6.426c0 .13.037.222.13.296a.44.44 0 0 0 .259.092.551.551 0 0 0 .278-.092c.074-.056.129-.148.129-.296v-6.426zm5.481 3.407a1.88 1.88 0 0 0-.13-.74c-.092-.204-.203-.39-.351-.52a1.318 1.318 0 0 0-.519-.296 2.347 2.347 0 0 0-.629-.092h-.093a1.42 1.42 0 0 0-.5.074c-.148.055-.278.13-.37.222-.019-.111-.074-.185-.148-.222a.372.372 0 0 0-.241-.074.378.378 0 0 0-.278.11.394.394 0 0 0-.129.279v4.278c0 .13.037.222.129.296a.443.443 0 0 0 .26.092.443.443 0 0 0 .259-.092c.074-.056.129-.148.129-.296v-3.02a.84.84 0 0 1 .26-.611.838.838 0 0 1 .611-.26h.092c.241 0 .445.093.63.26a.84.84 0 0 1 .259.611v3.019c0 .13.037.222.13.296a.495.495 0 0 0 .277.092.44.44 0 0 0 .259-.092c.075-.056.112-.148.112-.296V33.35h-.019zm3.833 2.76a.335.335 0 0 0-.278-.13.797.797 0 0 1-.407-.167.531.531 0 0 1-.185-.407v-2.89H120c.13 0 .222-.036.296-.129a.347.347 0 0 0 .093-.26.44.44 0 0 0-.093-.259.371.371 0 0 0-.296-.13h-.555v-1.777c0-.13-.037-.222-.13-.296a.347.347 0 0 0-.259-.093.446.446 0 0 0-.26.093.373.373 0 0 0-.129.296v1.778h-.37c-.13 0-.223.037-.297.13a.446.446 0 0 0-.092.259c0 .092.037.185.092.259.056.074.167.13.297.13h.37v2.907c0 .185.037.352.111.519.074.166.167.314.296.425.13.13.259.223.426.297.167.074.333.11.519.11.129 0 .24-.036.296-.11a.446.446 0 0 0 .092-.26.475.475 0 0 0-.092-.296zm4.906-2.741c0-.241-.037-.463-.129-.667a1.721 1.721 0 0 0-.352-.519 1.795 1.795 0 0 0-.537-.351 1.835 1.835 0 0 0-.648-.13h-.093a1.56 1.56 0 0 0-.648.13c-.203.092-.37.203-.518.351a1.506 1.506 0 0 0-.352.537 1.511 1.511 0 0 0-.129.649v1.759c0 .24.037.444.129.648.093.204.204.37.352.518.148.149.333.26.518.352a1.5 1.5 0 0 0 .648.13h.093c.352 0 .648-.093.907-.278a1.69 1.69 0 0 0 .593-.704c.018-.055.037-.11.037-.166a.393.393 0 0 0-.13-.296.337.337 0 0 0-.278-.112.42.42 0 0 0-.203.056.384.384 0 0 0-.148.185c-.074.148-.167.26-.297.37-.129.112-.296.149-.5.149h-.092a.84.84 0 0 1-.611-.26.838.838 0 0 1-.259-.61v-.52h2.24a.377.377 0 0 0 .389-.388v-.834h.018zm-.777.5h-1.852v-.519a.884.884 0 0 1 .87-.889h.112a.83.83 0 0 1 .592.26c.185.166.259.388.259.629v.519h.019zm4.98-1.667a.98.98 0 0 0-.481-.39 1.604 1.604 0 0 0-.926-.073.631.631 0 0 0-.222.074.27.27 0 0 0-.167.111.433.433 0 0 0-.148-.167c-.055-.037-.129-.037-.203-.037a.443.443 0 0 0-.278.111.332.332 0 0 0-.13.278v4.26c0 .13.037.24.111.296a.5.5 0 0 0 .278.092.44.44 0 0 0 .259-.092c.093-.074.13-.167.13-.296v-3.186c0-.074 0-.166.018-.24.019-.075.037-.149.093-.223.056-.055.111-.11.204-.166a.966.966 0 0 1 .37-.056c.13 0 .222.019.296.074.074.056.13.093.167.13a.456.456 0 0 0 .315.148.336.336 0 0 0 .259-.111.366.366 0 0 0 .111-.26c.037-.092 0-.185-.056-.277zm4.815 1.148c0-.278-.038-.518-.13-.74-.093-.204-.204-.39-.352-.52a1.452 1.452 0 0 0-.518-.296 2.36 2.36 0 0 0-.63-.092h-.092c-.186 0-.352.018-.5.074-.148.055-.278.13-.371.222-.018-.111-.074-.185-.148-.222a.406.406 0 0 0-.24-.074.376.376 0 0 0-.278.11.395.395 0 0 0-.13.279v4.278c0 .13.037.222.13.296a.453.453 0 0 0 .278.092.443.443 0 0 0 .259-.092c.074-.056.129-.148.129-.296v-3.02a.84.84 0 0 1 .26-.611.838.838 0 0 1 .611-.26h.092c.241 0 .445.093.63.26a.84.84 0 0 1 .259.611v3.019c0 .13.037.222.13.296a.44.44 0 0 0 .259.092.443.443 0 0 0 .259-.092c.074-.056.111-.148.111-.296V33.35h-.018zm5.536 2.778c-.056-.074-.13-.111-.26-.13-.185-.037-.259-.148-.259-.333v-2.37a1.35 1.35 0 0 0-.129-.612 1.483 1.483 0 0 0-.334-.5 1.384 1.384 0 0 0-.518-.333 1.819 1.819 0 0 0-.63-.13h-.074c-.129 0-.277.019-.426.037a1.938 1.938 0 0 0-.425.149c-.13.074-.26.166-.389.296a1.32 1.32 0 0 0-.296.463.537.537 0 0 0-.037.185c0 .111.037.204.129.26a.443.443 0 0 0 .259.092.65.65 0 0 0 .185-.037.435.435 0 0 0 .149-.167 1.38 1.38 0 0 1 .314-.389c.13-.092.297-.13.5-.13h.074a.94.94 0 0 1 .593.186c.167.13.241.333.241.648v.093c0 .037-.019.055-.019.074-.037.055-.13.092-.278.13-.148.036-.314.055-.5.092-.185.037-.388.074-.611.13-.203.055-.407.13-.592.24-.185.111-.315.24-.444.426a1.178 1.178 0 0 0-.186.667v.13c0 .24.056.444.148.63.093.184.223.332.371.462s.333.222.518.278c.204.055.408.092.611.092h.093c.426 0 .796-.13 1.111-.407.074.093.166.185.259.24.111.075.259.112.426.149 0 0 .037.018.074.018.13 0 .222-.037.278-.11a.458.458 0 0 0 .092-.279c.056-.092.019-.166-.018-.24zm-1.296-1.019a.882.882 0 0 1-.26.63.838.838 0 0 1-.611.26h-.092c-.259 0-.463-.056-.63-.186a.61.61 0 0 1-.24-.519v-.11c0-.186.055-.316.185-.408.111-.093.277-.167.463-.222.185-.056.388-.093.592-.13a19.4 19.4 0 0 0 .611-.111v.796h-.018zm4.758 1a.334.334 0 0 0-.278-.13.797.797 0 0 1-.407-.166.531.531 0 0 1-.185-.407v-2.89h.555c.13 0 .223-.036.297-.129a.445.445 0 0 0 .092-.26.446.446 0 0 0-.092-.259.404.404 0 0 0-.297-.13h-.555v-1.777c0-.13-.037-.222-.13-.296a.345.345 0 0 0-.259-.093.44.44 0 0 0-.259.093.374.374 0 0 0-.13.296v1.778h-.352c-.129 0-.222.037-.296.13a.346.346 0 0 0-.092.259c0 .092.037.185.092.259.056.074.167.13.296.13h.352v2.907c0 .185.037.352.111.519.074.166.167.314.297.425.129.13.259.223.425.297.167.074.334.11.519.11.148 0 .241-.036.296-.11a.44.44 0 0 0 .093-.26.469.469 0 0 0-.093-.296zm2.518-6.166c0-.13-.037-.223-.129-.297a.347.347 0 0 0-.26-.092.443.443 0 0 0-.259.092.373.373 0 0 0-.129.297v.222c0 .13.037.222.129.296a.347.347 0 0 0 .259.093.444.444 0 0 0 .26-.093.373.373 0 0 0 .129-.296v-.222zm0 2.148c0-.13-.037-.223-.129-.297a.444.444 0 0 0-.26-.092.443.443 0 0 0-.259.092.403.403 0 0 0-.129.297v4.278c0 .13.037.222.129.296a.443.443 0 0 0 .259.092.443.443 0 0 0 .26-.092c.074-.056.129-.148.129-.296v-4.278zm5.24 1.259a1.57 1.57 0 0 0-.129-.648c-.075-.204-.204-.37-.352-.537a1.808 1.808 0 0 0-.537-.352 1.562 1.562 0 0 0-.648-.13h-.093c-.222 0-.444.037-.648.13-.204.093-.37.204-.518.352a1.505 1.505 0 0 0-.352.537c-.093.203-.13.407-.13.648v1.76c0 .24.037.444.13.647.092.204.204.37.352.519.148.148.333.26.518.352.204.092.407.13.648.13h.111c.222 0 .445-.038.648-.13.204-.093.371-.204.537-.352a1.72 1.72 0 0 0 .352-.519c.093-.203.13-.407.13-.648v-1.759h-.019zm-.778 1.76c0 .24-.092.444-.259.61a.838.838 0 0 1-.611.26h-.092a.883.883 0 0 1-.63-.26.842.842 0 0 1-.259-.61v-1.76c0-.24.093-.444.259-.611a.84.84 0 0 1 .611-.26h.111c.241 0 .445.093.611.26.167.166.259.37.259.611v1.76zm5.963-1.76c0-.278-.038-.518-.13-.74-.093-.204-.204-.39-.352-.52a1.314 1.314 0 0 0-.518-.296 2.36 2.36 0 0 0-.63-.092h-.092c-.186 0-.352.018-.5.074-.148.055-.278.13-.371.222-.018-.111-.074-.185-.148-.222a.371.371 0 0 0-.24-.074.41.41 0 0 0-.278.11.395.395 0 0 0-.13.279v4.278c0 .13.037.222.13.296a.44.44 0 0 0 .259.092.44.44 0 0 0 .259-.092c.074-.056.13-.148.13-.296v-3.02a.84.84 0 0 1 .259-.611.84.84 0 0 1 .611-.26h.093a.84.84 0 0 1 .611.26.84.84 0 0 1 .259.611v3.019c0 .13.037.222.129.296a.5.5 0 0 0 .278.092.44.44 0 0 0 .259-.092c.075-.056.112-.148.112-.296V33.35zm5.517 2.778c-.055-.074-.129-.111-.259-.13-.185-.037-.259-.148-.259-.333v-2.37a1.34 1.34 0 0 0-.13-.612 1.827 1.827 0 0 0-.333-.5 1.388 1.388 0 0 0-.519-.333 1.814 1.814 0 0 0-.629-.13h-.074c-.13 0-.278.019-.426.037a1.667 1.667 0 0 0-.426.149 1.79 1.79 0 0 0-.389.296c-.129.13-.222.278-.296.463-.018.055-.037.11-.037.185 0 .111.037.204.13.26a.44.44 0 0 0 .259.092c.074 0 .129-.019.185-.037a.433.433 0 0 0 .148-.167 1.17 1.17 0 0 1 .333-.389c.13-.092.297-.13.5-.13h.074a.94.94 0 0 1 .593.186c.167.13.241.333.241.648v.093c0 .037 0 .055-.019.074-.037.055-.13.092-.278.13-.148.036-.314.055-.5.092-.185.037-.388.074-.611.13-.203.055-.407.13-.592.24-.185.111-.333.24-.444.426-.112.167-.167.389-.167.667v.13c0 .24.055.444.148.63.093.184.222.332.37.462s.334.222.519.278c.203.055.407.092.611.092h.092c.426 0 .797-.13 1.093-.407a.862.862 0 0 0 .278.24c.111.075.259.112.425.149 0 0 .037.018.074.018.13 0 .223-.037.278-.11a.452.452 0 0 0 .093-.279.281.281 0 0 0-.056-.24zm-1.296-1.019a.88.88 0 0 1-.259.63.872.872 0 0 1-.611.26h-.111c-.259 0-.463-.056-.63-.186a.61.61 0 0 1-.24-.519v-.11c0-.186.055-.316.185-.408a1.52 1.52 0 0 1 .463-.222c.185-.056.388-.093.592-.13a19.4 19.4 0 0 0 .611-.111v.796zm4.555.982a.374.374 0 0 0-.296-.13.576.576 0 0 1-.408-.167.544.544 0 0 1-.166-.407v-5.444c0-.13-.037-.223-.13-.297a.347.347 0 0 0-.259-.092.551.551 0 0 0-.278.092c-.074.056-.111.167-.111.297v5.463c0 .185.037.351.111.518.074.167.167.315.296.426.13.13.26.222.426.296.167.074.334.111.519.111.129 0 .24-.037.296-.11a.447.447 0 0 0 .093-.26c.018-.111-.019-.204-.093-.296zm4.925-2.722c0-.241-.037-.463-.13-.667a1.7 1.7 0 0 0-.351-.519 1.977 1.977 0 0 0-.519-.351 1.814 1.814 0 0 0-.629-.13h-.13c-.222 0-.444.037-.629.13a2.055 2.055 0 0 0-.537.351c-.148.149-.26.334-.352.537-.093.204-.13.408-.13.649v1.759c0 .24.037.444.13.648.092.204.204.37.352.518.148.149.333.26.537.352.203.093.407.13.629.13h.111c.352 0 .648-.093.926-.278.259-.185.463-.407.574-.704.018-.055.037-.11.037-.166a.393.393 0 0 0-.13-.296.375.375 0 0 0-.277-.112.424.424 0 0 0-.204.056.384.384 0 0 0-.148.185c-.074.148-.167.26-.296.37-.13.112-.297.149-.5.149h-.093a.84.84 0 0 1-.611-.26.838.838 0 0 1-.259-.61v-.52h2.24a.377.377 0 0 0 .389-.388v-.834zm-.796.5h-1.852v-.519a.88.88 0 0 1 .26-.63.869.869 0 0 1 .611-.259h.111c.222 0 .426.093.592.26a.88.88 0 0 1 .259.629v.519h.019zM98.078 20.352c0-.26-.056-.519-.149-.76a1.813 1.813 0 0 0-.425-.61 1.768 1.768 0 0 0-.612-.408 1.738 1.738 0 0 0-.759-.148h-1.666a.445.445 0 0 0-.278.11.377.377 0 0 0-.11.278v6.297c0 .092.036.185.11.278a.377.377 0 0 0 .278.11h1.666c.278 0 .519-.055.76-.147.24-.112.444-.241.61-.408.167-.166.315-.389.426-.611.111-.24.148-.5.148-.76v-3.221zm-.778 3.203c0 .167-.037.315-.093.463-.055.148-.148.26-.24.37-.093.112-.223.186-.37.26a1.29 1.29 0 0 1-.464.093h-1.259v-5.52h1.278c.166 0 .315.038.463.093.148.056.259.149.37.26.093.11.185.222.24.37.056.148.093.297.093.463v3.148H97.3zm5.98-1.389c0-.24-.037-.463-.129-.666a2.084 2.084 0 0 0-.352-.537 1.97 1.97 0 0 0-.518-.352 1.925 1.925 0 0 0-.648-.13h-.093a1.56 1.56 0 0 0-.648.13c-.204.092-.37.203-.519.352a1.607 1.607 0 0 0-.351.518 1.5 1.5 0 0 0-.13.648v1.76c0 .24.037.444.13.648a1.7 1.7 0 0 0 .351.518c.149.148.334.26.519.352.204.093.426.13.648.13h.093c.351 0 .648-.093.925-.278.26-.185.463-.407.574-.704a.396.396 0 0 0-.092-.463.377.377 0 0 0-.278-.11.311.311 0 0 0-.185.055.5.5 0 0 0-.148.185c-.074.148-.167.26-.297.37-.129.111-.296.149-.499.149h-.093a.84.84 0 0 1-.611-.26.838.838 0 0 1-.259-.61v-.52h2.24a.378.378 0 0 0 .389-.388v-.797h-.019zm-.777.519h-1.852v-.519a.884.884 0 0 1 .87-.889h.093c.222 0 .426.093.592.26a.88.88 0 0 1 .26.63v.518h.037zm5.814-1.796c0-.13-.037-.223-.13-.297a.347.347 0 0 0-.259-.092.44.44 0 0 0-.259.092.374.374 0 0 0-.13.297v3.018c0 .24-.093.445-.259.611a.883.883 0 0 1-.63.26h-.092a.838.838 0 0 1-.611-.26.839.839 0 0 1-.26-.61v-3.02c0-.129-.037-.222-.129-.296a.347.347 0 0 0-.259-.092.443.443 0 0 0-.26.092.373.373 0 0 0-.129.297v3.018c0 .296.037.537.129.74.093.205.204.371.352.5.148.13.333.242.519.297.203.074.407.093.629.093h.093c.185 0 .352-.019.5-.074a1.33 1.33 0 0 0 .388-.223c.019.112.075.186.149.223a.405.405 0 0 0 .24.074.446.446 0 0 0 .26-.093.362.362 0 0 0 .129-.278V20.89h.019zm3.98 4.018a.333.333 0 0 0-.277-.13.74.74 0 0 1-.408-.166.53.53 0 0 1-.185-.408v-2.889h.556c.129 0 .222-.037.296-.13a.347.347 0 0 0 .093-.258.44.44 0 0 0-.093-.26.374.374 0 0 0-.296-.13h-.556V18.76c0-.13-.037-.222-.129-.296a.443.443 0 0 0-.26-.093.443.443 0 0 0-.259.093.402.402 0 0 0-.129.296v1.778h-.352c-.13 0-.222.037-.296.13a.343.343 0 0 0-.093.259.44.44 0 0 0 .093.259c.055.074.166.13.296.13h.352v2.907c0 .185.037.352.111.518.074.167.166.315.277.426.13.13.26.223.426.297.167.074.334.11.519.11.148 0 .24-.036.296-.11a.44.44 0 0 0 .093-.26c0-.13-.019-.222-.075-.296zm5.037-.815c0-.333-.074-.592-.204-.777a1.446 1.446 0 0 0-.5-.445 2.336 2.336 0 0 0-.629-.24c-.241-.056-.445-.112-.648-.149-.186-.055-.352-.11-.482-.204a.46.46 0 0 1-.204-.388v-.037c0-.149.093-.278.241-.39.148-.11.371-.166.667-.166h.037c.241 0 .407.037.537.093.129.074.24.13.352.185a.635.635 0 0 0 .222.055.375.375 0 0 0 .277-.11.346.346 0 0 0 .093-.26c0-.13-.037-.222-.148-.296a1.004 1.004 0 0 0-.185-.13c-.074-.055-.167-.092-.296-.148-.112-.037-.241-.093-.389-.111a2.017 2.017 0 0 0-.482-.056h-.037c-.166 0-.333.019-.537.074-.185.037-.37.111-.537.223a1.51 1.51 0 0 0-.426.407c-.111.167-.166.37-.166.611 0 .315.074.574.204.74.129.167.296.316.481.408.204.093.407.167.648.204.241.037.444.093.648.148.185.056.352.148.481.26.13.11.204.259.204.48v.038c0 .166-.092.333-.259.463-.167.148-.407.222-.722.222h-.037c-.185 0-.389-.074-.593-.204a1.97 1.97 0 0 1-.5-.444c-.037-.074-.092-.111-.166-.148a.664.664 0 0 0-.185-.037.376.376 0 0 0-.278.11.395.395 0 0 0-.13.279.82.82 0 0 0 .056.185c.074.148.185.296.314.426.13.13.278.24.426.314.148.093.315.149.5.204.167.056.334.074.5.074h.056c.203 0 .426-.037.629-.092.204-.056.408-.149.574-.278a1.18 1.18 0 0 0 .408-.444c.111-.186.148-.39.148-.63v-.019h.037zm4.869-.481a.453.453 0 0 0-.277-.093.444.444 0 0 0-.26.093.403.403 0 0 0-.129.296c-.019.24-.093.445-.259.611a.841.841 0 0 1-.611.26h-.093a.883.883 0 0 1-.63-.26.842.842 0 0 1-.259-.61v-1.76c0-.24.093-.445.259-.611a.841.841 0 0 1 .611-.26h.112a.854.854 0 0 1 .87.87c0 .13.055.223.129.279a.443.443 0 0 0 .26.092.548.548 0 0 0 .277-.092.403.403 0 0 0 .13-.297c0-.222-.037-.444-.13-.648a1.7 1.7 0 0 0-.351-.518 1.439 1.439 0 0 0-.519-.352 1.475 1.475 0 0 0-.629-.13h-.112a1.56 1.56 0 0 0-.648.13 1.69 1.69 0 0 0-.518.352 1.72 1.72 0 0 0-.352.518 1.569 1.569 0 0 0-.129.648v1.76c0 .24.037.444.129.648.093.204.204.37.352.518.148.148.333.26.518.352.204.093.426.13.648.13h.112c.222 0 .444-.037.629-.13.204-.093.37-.204.537-.352.148-.148.278-.314.352-.518.092-.204.129-.408.129-.648-.037-.111-.074-.223-.148-.278zm5.259-1.463c0-.222-.037-.445-.13-.648a1.684 1.684 0 0 0-.87-.87 1.56 1.56 0 0 0-.648-.13h-.093a1.66 1.66 0 0 0-.518.074c-.167.055-.296.13-.37.222v-2.055c0-.13-.037-.223-.13-.297a.455.455 0 0 0-.278-.092.443.443 0 0 0-.259.092.403.403 0 0 0-.13.297v6.444c0 .13.037.222.13.296a.443.443 0 0 0 .259.093.552.552 0 0 0 .278-.093c.074-.055.13-.148.13-.296V22.11c0-.13.018-.24.074-.352a.963.963 0 0 1 .203-.26.938.938 0 0 1 .297-.166 1.076 1.076 0 0 1 .685 0 .944.944 0 0 1 .296.167.787.787 0 0 1 .204.277.871.871 0 0 1 .074.39v3.018c0 .13.037.222.129.296a.456.456 0 0 0 .278.093.44.44 0 0 0 .259-.093c.074-.055.13-.148.13-.296v-3.037zm5.073.018c0-.24-.037-.463-.13-.666a2.055 2.055 0 0 0-.351-.537 1.706 1.706 0 0 0-.519-.352 1.814 1.814 0 0 0-.629-.13h-.111c-.223 0-.445.037-.648.13a2.053 2.053 0 0 0-.537.352c-.149.148-.26.333-.352.518a1.5 1.5 0 0 0-.13.648v1.76c0 .24.037.444.13.648.092.204.203.37.352.518.148.148.333.26.537.352a1.5 1.5 0 0 0 .648.13h.111c.351 0 .648-.093.925-.278.26-.185.463-.407.574-.704a.396.396 0 0 0-.092-.463.445.445 0 0 0-.278-.11.426.426 0 0 0-.204.055.51.51 0 0 0-.148.185c-.074.148-.166.26-.296.37-.13.111-.296.149-.5.149h-.111a.84.84 0 0 1-.611-.26.838.838 0 0 1-.259-.61v-.52h2.24a.378.378 0 0 0 .389-.388v-.797zm-.778.519h-1.851v-.519a.883.883 0 0 1 .889-.889h.092c.222 0 .426.093.611.26a.88.88 0 0 1 .259.63v.518zm9.851-.648c0-.111-.037-.185-.111-.278a.377.377 0 0 0-.278-.111h-1.463c-.129 0-.222.037-.296.13a.44.44 0 0 0-.093.259.44.44 0 0 0 .093.259c.055.074.167.13.296.13h1.074v1.185a.978.978 0 0 1-.093.463c-.055.148-.148.259-.24.37a1.32 1.32 0 0 1-.371.26 1.286 1.286 0 0 1-.462.092h-.111c-.167 0-.315-.037-.463-.093a1.026 1.026 0 0 1-.371-.259 1.332 1.332 0 0 1-.259-.37 1.302 1.302 0 0 1-.093-.463v-3.315c0-.148.038-.296.093-.444.056-.149.148-.26.259-.37a1.32 1.32 0 0 1 .371-.26c.148-.056.296-.093.463-.093h.111c.333 0 .592.093.796.278.203.185.315.426.37.722a.408.408 0 0 0 .148.26.372.372 0 0 0 .241.074.555.555 0 0 0 .278-.093.362.362 0 0 0 .129-.278v-.055a2.014 2.014 0 0 0-.648-1.204 2.085 2.085 0 0 0-.592-.352 1.825 1.825 0 0 0-.704-.13h-.111a2.13 2.13 0 0 0-.759.149 2.45 2.45 0 0 0-.63.407 2.15 2.15 0 0 0-.426.611 2.07 2.07 0 0 0-.148.76v3.314c0 .278.056.519.148.76.112.24.241.444.426.61.167.167.389.316.63.408.241.093.481.148.759.148h.111c.259 0 .519-.055.759-.148a1.76 1.76 0 0 0 .611-.407 2.11 2.11 0 0 0 .426-.611 1.74 1.74 0 0 0 .148-.76v-1.555h-.018zm5.203.13a1.58 1.58 0 0 0-.13-.667 2.084 2.084 0 0 0-.352-.537 1.97 1.97 0 0 0-.518-.352 1.925 1.925 0 0 0-.648-.13h-.093a1.56 1.56 0 0 0-.648.13 2.07 2.07 0 0 0-.537.352 1.986 1.986 0 0 0-.352.518 1.511 1.511 0 0 0-.129.648v1.76c0 .24.037.444.129.648.093.204.204.37.352.518.148.148.333.26.537.352.204.093.407.13.648.13h.093c.352 0 .648-.093.926-.278.259-.185.462-.407.573-.704.019-.055.038-.11.038-.166a.397.397 0 0 0-.13-.297.377.377 0 0 0-.278-.11.42.42 0 0 0-.203.055.502.502 0 0 0-.149.185c-.074.148-.166.26-.296.37-.129.111-.296.149-.5.149h-.092a.838.838 0 0 1-.611-.26.84.84 0 0 1-.26-.61v-.52h2.241a.38.38 0 0 0 .389-.388v-.797zm-.778.518h-1.852v-.519c0-.24.093-.463.26-.63a.869.869 0 0 1 .611-.259h.092c.222 0 .426.093.593.26a.884.884 0 0 1 .259.63v.518h.037zm5.888 1.407c0-.333-.074-.592-.204-.777a1.564 1.564 0 0 0-.481-.445 2.466 2.466 0 0 0-.648-.24c-.241-.056-.445-.112-.63-.149a1.772 1.772 0 0 1-.5-.204.46.46 0 0 1-.203-.388v-.037c0-.149.092-.278.24-.39.149-.11.371-.166.648-.166h.037c.223 0 .408.037.537.093l.352.185a.493.493 0 0 0 .222.055c.111 0 .204-.037.26-.11a.366.366 0 0 0-.037-.556c-.037-.037-.111-.074-.186-.13-.074-.055-.185-.092-.277-.148-.111-.037-.241-.093-.389-.111a2.017 2.017 0 0 0-.482-.056h-.037a1.9 1.9 0 0 0-.537.074c-.185.037-.37.111-.536.223-.167.11-.315.24-.426.407-.111.167-.167.37-.167.611 0 .315.074.574.204.74.129.167.296.316.5.408a2.2 2.2 0 0 0 .648.204c.222.037.444.093.629.148.204.056.352.148.5.26.13.11.204.259.204.48v.038c0 .166-.093.333-.259.463-.167.148-.408.222-.723.222h-.055c-.185 0-.389-.074-.593-.204a1.876 1.876 0 0 1-.481-.444.6.6 0 0 0-.167-.148.65.65 0 0 0-.185-.037.447.447 0 0 0-.278.11.394.394 0 0 0-.129.279.78.78 0 0 0 .055.185c.074.148.186.296.315.426.13.13.278.24.426.314.148.093.315.149.5.204.167.056.352.074.5.074h.055c.204 0 .426-.037.63-.092.204-.056.407-.149.574-.278a1.17 1.17 0 0 0 .407-.444c.093-.186.148-.39.148-.63v-.019h.019zm4.962-1.926c0-.24-.037-.463-.129-.666a2.084 2.084 0 0 0-.352-.537 1.975 1.975 0 0 0-.519-.352 1.92 1.92 0 0 0-.648-.13h-.111c-.222 0-.444.037-.629.13a2.053 2.053 0 0 0-.537.352 1.61 1.61 0 0 0-.352.518 1.5 1.5 0 0 0-.13.648v1.76c0 .24.037.444.13.648.074.204.204.37.352.518.148.148.333.26.537.352.203.093.407.13.629.13h.111c.352 0 .648-.093.907-.278.26-.185.463-.407.574-.704.019-.055.038-.11.038-.166a.397.397 0 0 0-.13-.297.377.377 0 0 0-.278-.11.314.314 0 0 0-.185.055.5.5 0 0 0-.148.185c-.074.148-.167.26-.296.37-.13.111-.297.149-.5.149h-.111a.838.838 0 0 1-.611-.26.84.84 0 0 1-.26-.61v-.52h2.241a.38.38 0 0 0 .389-.388v-.797h.018zm-.778.519h-1.851v-.519a.88.88 0 0 1 .259-.63.872.872 0 0 1 .611-.259h.111c.222 0 .426.093.593.26a.884.884 0 0 1 .259.63v.518h.018zm4.166 2.222c-.055-.093-.166-.13-.296-.13a.665.665 0 0 1-.407-.166.545.545 0 0 1-.167-.408v-5.462c0-.13-.037-.223-.129-.297a.443.443 0 0 0-.26-.092.548.548 0 0 0-.277.092.403.403 0 0 0-.13.297v5.462c0 .186.037.352.093.519.074.167.166.315.296.426.13.13.259.222.426.296.166.074.333.111.518.111.13 0 .241-.037.296-.11a.44.44 0 0 0 .093-.26c.037-.111 0-.204-.056-.278zm3.222 0c-.055-.093-.166-.13-.296-.13a.665.665 0 0 1-.407-.166.545.545 0 0 1-.167-.408v-5.462c0-.13-.037-.223-.13-.297a.495.495 0 0 0-.277-.092.443.443 0 0 0-.26.092.402.402 0 0 0-.129.297v5.462c0 .186.037.352.092.519.074.167.167.315.297.426.129.13.277.222.425.296.167.074.334.111.519.111.13 0 .241-.037.296-.11a.44.44 0 0 0 .093-.26.35.35 0 0 0-.056-.278zm5.055-.815c0-.333-.074-.592-.204-.777a1.564 1.564 0 0 0-.481-.445 2.466 2.466 0 0 0-.648-.24c-.241-.056-.445-.112-.63-.149a1.458 1.458 0 0 1-.481-.204.458.458 0 0 1-.204-.388v-.037c0-.149.093-.278.241-.39.148-.11.37-.166.648-.166h.037c.241 0 .407.037.537.093.13.074.259.13.352.185a.493.493 0 0 0 .222.055c.111 0 .204-.037.259-.11a.366.366 0 0 0-.037-.556.97.97 0 0 0-.185-.13c-.074-.055-.167-.092-.296-.148-.111-.037-.241-.093-.389-.111a2.014 2.014 0 0 0-.481-.056h-.038c-.166 0-.351.019-.536.074a1.372 1.372 0 0 0-.537.223c-.167.11-.315.24-.426.407-.111.167-.167.37-.167.611 0 .315.074.574.204.74.129.167.296.316.5.408.185.093.407.167.629.204.241.037.445.093.648.148.185.056.352.148.5.26.13.11.204.259.204.48v.038c0 .166-.093.333-.259.463-.167.148-.408.222-.722.222h-.056c-.185 0-.389-.074-.593-.204a1.876 1.876 0 0 1-.481-.444.6.6 0 0 0-.167-.148.65.65 0 0 0-.185-.037.443.443 0 0 0-.277.11.39.39 0 0 0-.13.279.78.78 0 0 0 .055.185c.075.148.186.296.315.426.13.13.278.24.426.314.148.093.315.149.5.204.167.056.352.074.5.074h.055c.204 0 .426-.037.63-.092.204-.056.407-.149.574-.278a1.17 1.17 0 0 0 .407-.444c.093-.186.148-.39.148-.63v-.019h.019zm4.851-.481a.494.494 0 0 0-.259-.093.44.44 0 0 0-.259.093.404.404 0 0 0-.13.296.94.94 0 0 1-.278.611.838.838 0 0 1-.611.26h-.092a.883.883 0 0 1-.63-.26.842.842 0 0 1-.259-.61v-1.76c0-.24.093-.445.259-.611a.84.84 0 0 1 .611-.26h.111c.241 0 .445.075.611.241.167.167.259.37.278.63 0 .13.056.222.13.278a.44.44 0 0 0 .259.092.443.443 0 0 0 .259-.092.403.403 0 0 0 .13-.297c0-.222-.037-.444-.13-.648a1.72 1.72 0 0 0-.352-.518 1.435 1.435 0 0 0-.518-.352 1.56 1.56 0 0 0-.648-.13h-.111c-.222 0-.445.037-.63.13a1.677 1.677 0 0 0-.87.87c-.093.204-.13.426-.13.648v1.76c0 .24.037.444.13.648.092.204.204.37.352.518.148.148.333.26.537.352.203.093.407.13.629.13h.111c.222 0 .445-.037.648-.13.204-.093.371-.204.537-.352.148-.148.26-.314.352-.518a1.5 1.5 0 0 0 .13-.648c-.056-.111-.093-.223-.167-.278zm5.166-1.463c0-.222-.037-.445-.13-.648a1.7 1.7 0 0 0-.351-.519 1.622 1.622 0 0 0-.519-.352 1.502 1.502 0 0 0-.648-.13h-.093c-.185 0-.351.02-.518.075-.167.055-.296.13-.37.222v-2.055c0-.13-.037-.223-.13-.297a.49.49 0 0 0-.259-.092.44.44 0 0 0-.259.092.403.403 0 0 0-.13.297v6.444c0 .13.037.222.13.296a.44.44 0 0 0 .259.093.443.443 0 0 0 .259-.093c.074-.055.13-.148.13-.296V22.11c0-.13.018-.24.074-.352.055-.111.129-.185.203-.26a.949.949 0 0 1 .297-.166 1.076 1.076 0 0 1 .685 0 .944.944 0 0 1 .296.167.603.603 0 0 1 .204.277.871.871 0 0 1 .074.39v3.018c0 .13.037.222.129.296a.444.444 0 0 0 .26.093.443.443 0 0 0 .259-.093c.074-.055.129-.148.129-.296v-3.037h.019zm5.481 2.778c-.056-.074-.13-.111-.241-.13-.185-.037-.259-.148-.259-.333v-2.37c0-.223-.037-.427-.13-.612a1.826 1.826 0 0 0-.333-.5 1.385 1.385 0 0 0-.519-.333 1.814 1.814 0 0 0-.629-.13h-.074c-.13 0-.278.019-.426.056a1.946 1.946 0 0 0-.426.148c-.13.074-.259.167-.389.296-.111.13-.222.278-.296.463-.037.056-.037.111-.037.185 0 .111.037.204.129.26a.446.446 0 0 0 .26.092c.074 0 .129-.018.203-.037a.443.443 0 0 0 .149-.167c.092-.166.203-.296.333-.388.129-.093.296-.13.5-.13h.074a.94.94 0 0 1 .592.185c.167.13.241.333.241.648v.093c0 .037-.019.055-.019.074-.037.056-.129.093-.277.13-.148.037-.315.055-.5.092s-.389.074-.611.13c-.204.055-.408.13-.593.24a1.234 1.234 0 0 0-.444.426c-.111.167-.167.39-.167.667v.13c0 .24.056.444.148.63.093.185.223.333.371.462.148.13.333.223.537.278.203.056.407.093.611.093h.092c.426 0 .796-.13 1.111-.408.074.093.148.186.278.241.111.074.259.111.426.148h.074c.129 0 .222-.037.278-.11.074-.075.092-.168.092-.279-.037-.074-.074-.166-.129-.24zm-1.297-1.019c0 .24-.092.445-.259.611a.87.87 0 0 1-.611.26h-.092c-.26 0-.482-.075-.63-.204a.608.608 0 0 1-.241-.519v-.074c0-.185.056-.315.186-.407.129-.093.277-.167.462-.222.186-.056.389-.093.593-.13.204-.037.426-.074.611-.111v.796h-.019zm4.74-5.426a.371.371 0 0 0-.296-.13c-.185 0-.37.038-.537.112a1.706 1.706 0 0 0-.426.277c-.111.112-.203.26-.277.426a1.315 1.315 0 0 0-.093.537v.815h-.222c-.13 0-.222.037-.296.13a.44.44 0 0 0-.093.26.44.44 0 0 0 .093.258c.055.074.166.13.296.13h.222v3.889c0 .13.037.222.13.296a.44.44 0 0 0 .259.093.555.555 0 0 0 .278-.093c.074-.055.129-.148.129-.296v-3.87h.482c.129 0 .222-.038.296-.13a.446.446 0 0 0 .092-.26.445.445 0 0 0-.092-.259.374.374 0 0 0-.296-.13h-.482v-.814a.65.65 0 0 1 .148-.408.505.505 0 0 1 .389-.166c.13 0 .222-.037.296-.13.075-.074.093-.166.093-.259a.496.496 0 0 0-.093-.278zm3.37 6.426a.333.333 0 0 0-.277-.13.928.928 0 0 1-.426-.166.53.53 0 0 1-.185-.408v-2.889h.555c.13 0 .222-.037.296-.13a.347.347 0 0 0 .093-.258.44.44 0 0 0-.093-.26.371.371 0 0 0-.296-.13h-.555V18.76c0-.13-.037-.222-.13-.296a.493.493 0 0 0-.259-.093.44.44 0 0 0-.259.093c-.093.074-.13.166-.13.296v1.778h-.352c-.13 0-.222.037-.296.13a.44.44 0 0 0-.093.259.44.44 0 0 0 .093.259c.055.074.166.13.296.13h.352v2.907c0 .185.037.352.092.518.075.167.167.315.297.426a1.347 1.347 0 0 0 .944.408c.13 0 .241-.037.296-.111a.44.44 0 0 0 .093-.26c.018-.13 0-.222-.056-.296z" fill="#D40E14"/></svg>