<svg width="64" height="64" viewBox="0 0 64 64" fill="none" xmlns="http://www.w3.org/2000/svg"><path d="M57.005 28.57c-.924-.797-1.97-1.704-4.007-1.704s-3.084.904-4.008 1.702c-.477.413-.917.791-1.488 1.037l2.418-8.9a4.906 4.906 0 0 0-.13-2.994l-1.54-4.188.43-1.585.462.134a.775.775 0 0 0 .69-.134.815.815 0 0 0 .285-.428l.452-1.65c.11-.409.059-.845-.143-1.214a1.561 1.561 0 0 0-.932-.756L45.47 6.727a1.508 1.508 0 0 0-1.18.145c-.177.103-.334.24-.46.406a1.615 1.615 0 0 0-.274.556l-.452 1.652a.836.836 0 0 0 .073.619.795.795 0 0 0 .475.385l.39.116-.465 1.71-3.342 2.623a4.83 4.83 0 0 0-1.662 2.522l-2.856 10.51c-.259.196-.497.4-.727.6-.821.71-1.53 1.32-2.986 1.32-1.457 0-2.171-.613-2.991-1.323l-5.81-19.96a1.533 1.533 0 0 0-.722-.914 1.457 1.457 0 0 0-1.138-.122l-2.314.714a1.481 1.481 0 0 0-.515.281 1.53 1.53 0 0 0-.371.464 1.573 1.573 0 0 0-.115 1.173l1.103 3.8-3.82 1.179-1.105-3.8a1.534 1.534 0 0 0-.723-.915 1.458 1.458 0 0 0-1.138-.121l-2.313.713a1.481 1.481 0 0 0-.515.282 1.531 1.531 0 0 0-.371.463 1.575 1.575 0 0 0-.115 1.173l4.165 14.334A5.205 5.205 0 0 0 11 26.866c-2.032 0-3.085.904-4.007 1.702-.822.712-1.526 1.323-2.994 1.323v1.629c2.033 0 3.084-.905 4.008-1.704.82-.707 1.525-1.321 2.993-1.321 1.41 0 2.119.569 2.902 1.245l1.428 4.91c.084.292.223.565.41.801.186.237.415.433.676.578a2.201 2.201 0 0 0 1.714.181l9.864-3.042a2.253 2.253 0 0 0 1.15-.826c.288-.394.447-.872.453-1.366a5.13 5.13 0 0 0 2.407.544c1.355 0 2.265-.4 2.998-.9l-.081.297a2.986 2.986 0 0 0 .258 2.205c.181.332.424.624.715.86.291.235.624.408.98.511L42.79 36.2a2.74 2.74 0 0 0 2.136-.264 2.886 2.886 0 0 0 1.33-1.74l.748-2.75c1.402-.242 2.245-.966 3.002-1.621.821-.716 1.535-1.33 2.992-1.33 1.456 0 2.171.612 2.99 1.321.925.799 1.971 1.704 4.009 1.704v-1.63c-1.462 0-2.17-.61-2.992-1.32zM19.583 15.565l.265.905a.56.56 0 0 1-.04.414.534.534 0 0 1-.311.265l-2.816.868a.515.515 0 0 1-.402-.044.541.541 0 0 1-.254-.324l-.26-.904 3.819-1.18zm-6.866-3.632l1.796 6.183c.16.551.527 1.015 1.019 1.29a2.058 2.058 0 0 0 1.604.172l2.816-.869a2.127 2.127 0 0 0 1.249-1.052 2.234 2.234 0 0 0 .163-1.654L19.568 9.82l2.145-.662 5.247 18.057a5.303 5.303 0 0 0-1.956-.349c-2.039 0-3.085.904-4.009 1.702-.823.712-1.532 1.323-2.992 1.323-1.3 0-2.004-.484-2.72-1.089L10.57 12.595l2.147-.662zM27.54 31.61l-9.864 3.042a.645.645 0 0 1-.508-.054.694.694 0 0 1-.325-.413l-.883-3.041c.65.26 1.344.387 2.042.376 2.032 0 3.084-.905 4.007-1.704.819-.707 1.526-1.321 2.994-1.321 1.242 0 1.941.442 2.626 1.01l.36 1.24a.717.717 0 0 1-.052.528.683.683 0 0 1-.397.337zM45.07 8.304l3.964 1.143-.226.837-1.491-.43-2.083-.602h-.008l-.381-.11.226-.838zm2.086 3.196l-.226.825-1.59-.459.226-.826 1.59.46zm-7.06 6.398a3.198 3.198 0 0 1 1.097-1.667l3.128-2.456.48-.377 1.92.553.212.582 1.383 3.76a3.26 3.26 0 0 1 .086 1.978l-2.621 9.62c-1.32-.058-1.998-.643-2.778-1.317-.92-.802-1.965-1.708-4.006-1.708-.465-.003-.93.05-1.383.16l2.481-9.128zm3.114 16.734l-5.915-1.705a1.222 1.222 0 0 1-.43-.224 1.298 1.298 0 0 1-.427-1.344l.643-2.366a3.56 3.56 0 0 1 1.92-.496c1.462 0 2.171.612 2.992 1.322.821.71 1.738 1.5 3.359 1.668l-.616 2.264c-.09.325-.3.6-.587.766a1.21 1.21 0 0 1-.94.117v-.002zm9.787 3.32c-2.033 0-3.084.906-4.008 1.704-.821.71-1.53 1.321-2.991 1.321-1.463 0-2.172-.611-2.993-1.321-.922-.798-1.97-1.703-4.008-1.703-2.038 0-3.084.905-4.007 1.703-.821.705-1.53 1.321-2.986 1.321-1.457 0-2.171-.611-2.991-1.321-.93-.798-1.978-1.703-4.01-1.703-2.033 0-3.085.905-4.009 1.703-.823.705-1.532 1.321-2.992 1.321s-2.172-.611-2.993-1.321c-.926-.798-1.976-1.703-4.009-1.703-2.032 0-3.085.905-4.007 1.703-.822.705-1.526 1.321-2.994 1.321v1.63c2.033 0 3.084-.905 4.008-1.703.82-.71 1.525-1.323 2.993-1.323s2.172.613 2.993 1.323c.922.798 1.97 1.702 4.007 1.702 2.039 0 3.084-.904 4.008-1.702.821-.71 1.53-1.323 2.993-1.323 1.462 0 2.17.613 2.99 1.323.925.798 1.971 1.702 4.009 1.702 2.037 0 3.084-.904 4.007-1.702.821-.71 1.53-1.323 2.992-1.323s2.171.613 2.992 1.323c.923.798 1.97 1.702 4.008 1.702 2.038 0 3.084-.904 4.007-1.702.821-.71 1.53-1.323 2.992-1.323s2.171.613 2.991 1.323c.924.798 1.97 1.702 4.008 1.702v-1.629c-1.462 0-2.17-.611-2.992-1.321-.925-.798-1.971-1.703-4.008-1.703zm0 11.086c-2.033 0-3.084.905-4.008 1.703-.821.71-1.53 1.322-2.991 1.322-.107 0-.21 0-.309-.01l.064-.09a.831.831 0 0 0 0-.95c-3.162-4.538-6.592-6.786-10.212-6.705-2.462.058-5 1.25-7.34 3.445a19.6 19.6 0 0 0-2.332 2.628l-4.721-3.175a.775.775 0 0 0-1.112.265.833.833 0 0 0-.111.417v3.675c-.452.272-1.045.5-1.928.5-1.462 0-2.172-.612-2.993-1.322-.92-.798-1.971-1.703-4.004-1.703-2.032 0-3.085.905-4.007 1.703-.822.71-1.526 1.322-2.994 1.322v1.628c2.033 0 3.084-.905 4.008-1.703.82-.708 1.525-1.321 2.993-1.321s2.172.613 2.993 1.321c.922.798 1.97 1.703 4.007 1.703a5.33 5.33 0 0 0 1.928-.331v2.227c0 .15.04.299.118.427a.8.8 0 0 0 .317.3.77.77 0 0 0 .828-.074l4.71-3.606a19.67 19.67 0 0 0 2.303 2.59c2.339 2.194 4.876 3.385 7.34 3.443h.198c3.103 0 6.07-1.73 8.844-5.148.463.117.938.174 1.415.17 2.033 0 3.084-.905 4.008-1.703.82-.708 1.529-1.322 2.991-1.322 1.462 0 2.172.614 2.991 1.322.924.798 1.97 1.703 4.008 1.703V52.06c-1.461 0-2.17-.611-2.991-1.321-.928-.796-1.974-1.7-4.011-1.7zm-31.49 4.934v-4.58l3.184 2.137-3.183 2.443zm22.566-2.408c-.332.453-.667.88-1.005 1.28-2.413 2.845-4.928 4.254-7.484 4.198-4.23-.096-7.545-4.178-8.54-5.55.996-1.374 4.31-5.456 8.54-5.552 2.936-.063 5.812 1.801 8.546 5.552l-.057.072z" fill="#003254"/><path d="M41.061 49.675a.965.965 0 0 0-.686-.308.963.963 0 0 0-.697.282l-.995.985-.993-.986a.98.98 0 0 0-.707-.315.955.955 0 0 0-.71.31 1.01 1.01 0 0 0-.272.741 1.031 1.031 0 0 0 .334.715l.94.93-.94.929a1.022 1.022 0 0 0-.277.699c0 .26.097.512.273.7a.962.962 0 0 0 1.358.052l.994-.985.995.985a.962.962 0 0 0 1.358-.052 1.02 1.02 0 0 0 .273-.7c0-.261-.1-.512-.277-.7l-.94-.929.94-.93a1.02 1.02 0 0 0 .301-.705 1.023 1.023 0 0 0-.272-.718z" fill="#EF6C4F"/></svg>