<svg width="64" height="64" viewBox="0 0 64 64" fill="none" xmlns="http://www.w3.org/2000/svg"><path d="M9.898 46.904a.755.755 0 0 0 .533.22h7.505c.2 0 .39-.079.532-.219l.011-.011a.754.754 0 0 0 .223-.535V33.026a.754.754 0 0 0-.754-.754H10.42a.753.753 0 0 0-.753.754v13.333c0 .2.08.392.22.533l.012.011zm1.275-13.125h6.021v11.838h-6.021V33.78zm16.34 13.124a.755.755 0 0 0 .533.221h7.505c.2 0 .392-.08.533-.22l.011-.012a.752.752 0 0 0 .22-.533V33.026a.754.754 0 0 0-.752-.754h-7.529a.753.753 0 0 0-.753.754v13.333c0 .2.08.392.22.533l.012.011zm1.274-13.124h6.022v11.838h-6.021V33.78zM45.13 46.905c.141.14.332.22.531.22h7.505c.2 0 .392-.08.533-.221l.012-.012a.753.753 0 0 0 .22-.533V33.026a.753.753 0 0 0-.753-.753H45.65a.754.754 0 0 0-.754.753V46.36c0 .201.08.393.222.535l.012.011zm1.273-13.126h6.021v11.838h-6.021V33.78z" fill="#003254"/><path d="M58.272 48.792h-2.218c.575-.68.89-1.541.89-2.432V33.027a7.074 7.074 0 0 0-2.003-4.947c-1.097-1.132-1.578-1.772-1.578-3.144v-1.12a.753.753 0 0 0-.753-.753h-6.395a.753.753 0 0 0-.754.754v1.119c0 1.372-.48 2.012-1.578 3.145a7.075 7.075 0 0 0-2.002 4.946V46.36c0 .926.335 1.774.89 2.432h-4.332a3.76 3.76 0 0 0 .89-2.432V33.027a7.075 7.075 0 0 0-2.002-4.947c-1.097-1.132-1.578-1.772-1.578-3.144v-1.12a.753.753 0 0 0-.754-.753H28.6a.753.753 0 0 0-.753.754v1.119c0 1.372-.481 2.012-1.578 3.145a7.075 7.075 0 0 0-2.003 4.946V46.36c0 .926.336 1.774.89 2.432h-4.331c.575-.68.89-1.541.89-2.432V33.027a7.074 7.074 0 0 0-2.003-4.947c-1.097-1.132-1.578-1.772-1.578-3.144v-.44a.752.752 0 0 0 .63-.741v-2.66a1.88 1.88 0 0 0-1.878-1.88H11.48c-1.036 0-1.88.843-1.88 1.88v2.66a.75.75 0 0 0 .631.74v.441c0 1.372-.48 2.012-1.578 3.145a7.075 7.075 0 0 0-2.002 4.946V46.36c0 .926.335 1.774.89 2.432H5.728A5.735 5.735 0 0 0 0 54.521a5.735 5.735 0 0 0 5.728 5.728h52.544A5.735 5.735 0 0 0 64 54.521a5.735 5.735 0 0 0-5.728-5.729zM43.388 33.027c0-1.463.56-2.848 1.578-3.898 1.172-1.211 2.002-2.22 2.002-4.193v-.366h4.888v.366c0 1.972.83 2.982 2.003 4.193a5.575 5.575 0 0 1 1.578 3.898V46.36a2.274 2.274 0 0 1-2.272 2.272H45.66a2.275 2.275 0 0 1-2.272-2.272V33.027zm-17.615 0c0-1.463.56-2.848 1.578-3.898 1.173-1.211 2.003-2.22 2.003-4.193v-.366h4.888v.366c0 1.973.83 2.982 2.002 4.193a5.576 5.576 0 0 1 1.578 3.898V46.36a2.274 2.274 0 0 1-2.272 2.272h-7.505a2.274 2.274 0 0 1-2.272-2.272V33.027zM11.11 21.094a.373.373 0 0 1 .372-.372h5.404a.372.372 0 0 1 .373.372v1.907h-6.15v-1.907zM8.16 33.027c0-1.463.56-2.848 1.578-3.898 1.172-1.211 2.002-2.22 2.002-4.193v-.366h4.888v.366c0 1.973.83 2.982 2.003 4.193a5.575 5.575 0 0 1 1.578 3.898V46.36a2.274 2.274 0 0 1-2.272 2.272H10.43a2.274 2.274 0 0 1-2.272-2.272V33.027zm50.113 25.715H5.728a4.226 4.226 0 0 1-4.221-4.221 4.226 4.226 0 0 1 4.221-4.222h52.544a4.226 4.226 0 0 1 4.221 4.222 4.226 4.226 0 0 1-4.221 4.221z" fill="#003254"/><path d="M9.194 52.01a2.514 2.514 0 0 0-2.51 2.51 2.514 2.514 0 0 0 2.51 2.51 2.514 2.514 0 0 0 2.511-2.51 2.514 2.514 0 0 0-2.51-2.51zm0 3.514a1.005 1.005 0 0 1 0-2.008 1.005 1.005 0 0 1 0 2.008zm15.07-3.515a2.514 2.514 0 0 0-2.511 2.511 2.514 2.514 0 0 0 2.51 2.51 2.514 2.514 0 0 0 2.511-2.51 2.514 2.514 0 0 0-2.51-2.51zm0 3.515a1.005 1.005 0 0 1 0-2.008 1.005 1.005 0 0 1 0 2.008zm15.069-3.515a2.514 2.514 0 0 0-2.511 2.511 2.514 2.514 0 0 0 2.51 2.51 2.514 2.514 0 0 0 2.511-2.51 2.514 2.514 0 0 0-2.51-2.51zm0 3.515a1.005 1.005 0 0 1-1.004-1.004 1.005 1.005 0 0 1 2.008 0 1.005 1.005 0 0 1-1.004 1.004zm15.069-3.515a2.514 2.514 0 0 0-2.51 2.511 2.514 2.514 0 0 0 2.51 2.51 2.514 2.514 0 0 0 2.51-2.51 2.514 2.514 0 0 0-2.51-2.51zm0 3.515a1.005 1.005 0 0 1-1.004-1.004 1.005 1.005 0 0 1 2.008 0 1.005 1.005 0 0 1-1.004 1.004zm-23.4-46.867v4.07h-1.906a.753.753 0 0 0-.753.754v3.8a1.881 1.881 0 0 0-1.126 1.721v2.66a.753.753 0 0 0 .753.754h7.656a.753.753 0 0 0 .754-.753v-2.66c0-.8-.504-1.484-1.21-1.755v-3.767a.753.753 0 0 0-.753-.753H32.51V8.657a2.515 2.515 0 0 0 1.757-2.395 2.513 2.513 0 0 0-2.51-2.511 2.514 2.514 0 0 0-2.32 1.55H9.677V6.81h19.63a2.518 2.518 0 0 0 1.696 1.848zm3.87 12.252h-6.148v-1.907a.373.373 0 0 1 .372-.372H34.5a.372.372 0 0 1 .373.372v1.907zm-1.209-3.937H29.85v-2.737h3.813v2.737zM31.756 5.258a1.005 1.005 0 0 1 0 2.008 1.005 1.005 0 0 1 0-2.008z" fill="#EF6C4F"/></svg>