<svg width="64" height="64" viewBox="0 0 64 64" fill="none" xmlns="http://www.w3.org/2000/svg"><path d="M53.648 12H50.51c-.624 0-1.222.245-1.663.682a2.314 2.314 0 0 0-.69 1.645v7.758a2.31 2.31 0 0 1-.689 1.645 2.367 2.367 0 0 1-1.663.682h-4.382L40.41 23.41a2.972 2.972 0 0 1-.879-2.1v-6.982a2.31 2.31 0 0 0-.69-1.645A2.366 2.366 0 0 0 37.178 12h-5.49c-.624 0-1.223.245-1.664.682a2.315 2.315 0 0 0-.689 1.645V52.34c0 .618.248 1.21.69 1.646a2.36 2.36 0 0 0 1.663.682h21.96c.625 0 1.223-.245 1.665-.682.44-.436.689-1.028.689-1.646V14.327a2.31 2.31 0 0 0-.69-1.645A2.367 2.367 0 0 0 53.649 12zM37.96 14.327v6.982a4.523 4.523 0 0 0 1.255 3.103h-.47a2.366 2.366 0 0 1-1.664-.681 2.314 2.314 0 0 1-.69-1.646V13.55h.785c.208 0 .408.082.555.228a.77.77 0 0 1 .23.548zm16.471 11.285V52.34a.771.771 0 0 1-.23.549.789.789 0 0 1-.554.227h-21.96a.789.789 0 0 1-.555-.227.771.771 0 0 1-.23-.549V14.327a.77.77 0 0 1 .23-.548.789.789 0 0 1 .555-.227h3.137v8.533a3.862 3.862 0 0 0 1.15 2.741 3.948 3.948 0 0 0 2.772 1.138h7.059a3.948 3.948 0 0 0 2.771-1.138 3.862 3.862 0 0 0 1.15-2.741v-7.758a.77.77 0 0 1 .23-.548.788.788 0 0 1 .554-.227h3.138c.208 0 .407.081.554.227a.77.77 0 0 1 .23.548v10.085h.027c-.027.29-.027.681-.027 1.2z" fill="#003254"/><path d="M46.976 35.055l-1.864-3.314a2.145 2.145 0 0 0-.757-.787 1.976 1.976 0 0 0-1.022-.287c-.359 0-.711.099-1.023.287a2.15 2.15 0 0 0-.757.787l-1.864 3.314 1.286.824 1.865-3.314a.616.616 0 0 1 .214-.202.57.57 0 0 1 .557 0c.085.048.16.117.214.202l1.865 3.314 1.286-.824zm.783 1.67l-1.357.684 1.276 2.88a.73.73 0 0 0 .075.137.416.416 0 0 1-.035.523.363.363 0 0 1-.265.117h-3.37v1.6h3.376c.34 0 .675-.099.967-.286.292-.188.53-.457.69-.778a2.111 2.111 0 0 0-.107-2.06l-1.25-2.817zm-8.928 3.942c0-.086.027-.17.075-.24a.76.76 0 0 0 .075-.138l1.276-2.88-1.35-.684-1.248 2.817a2.11 2.11 0 0 0-.108 2.059c.16.321.397.59.689.778.292.188.626.287.966.288h3.376v-1.6h-3.376a.364.364 0 0 1-.265-.117.414.414 0 0 1-.11-.283z" fill="#EF6C4F"/><path d="M43.172 28.092a10.161 10.161 0 1 0 10.161 10.16 10.173 10.173 0 0 0-10.16-10.16zm0 18.758a8.598 8.598 0 1 1 8.598-8.598 8.608 8.608 0 0 1-8.598 8.598zm-18.24 7.035l1.045-.782a3.928 3.928 0 0 0 1.563-3.126v-6.85a2.351 2.351 0 0 0 .782-1.748v-2.345c0-.577-.213-1.134-.599-1.563.386-.43.6-.986.599-1.563v-2.345c0-.577-.213-1.134-.599-1.563.386-.43.6-.986.599-1.564v-2.344a2.882 2.882 0 0 0-.782-1.938V23.34a3.89 3.89 0 0 0-1.466-3.048l-2.442-1.955v-2.892a2.344 2.344 0 0 0 1.563-2.204v-1.563a2.344 2.344 0 0 0-2.344-2.345h-9.38a2.345 2.345 0 0 0-2.345 2.345v1.563a2.345 2.345 0 0 0 1.564 2.201v2.892l-2.442 1.954a3.891 3.891 0 0 0-1.466 3.054v2.814A2.892 2.892 0 0 0 8 28.092v2.345c0 .577.213 1.133.599 1.563-.386.429-.6.986-.599 1.563v2.345c0 .577.213 1.134.599 1.563-.386.43-.6.986-.599 1.563v2.345a2.354 2.354 0 0 0 .782 1.747v6.85a3.926 3.926 0 0 0 1.563 3.127l1.04.782c.678.506 1.5.78 2.346.781h8.858a3.925 3.925 0 0 0 2.344-.781zM14.253 17.93v-2.345h7.817v2.345h-7.816zm-1.562-6.253a.781.781 0 0 1 .781-.782h9.38a.782.782 0 0 1 .781.782v1.563a.782.782 0 0 1-.781.782h-9.38a.782.782 0 0 1-.781-.782v-1.563zM9.563 28.092c.01-.284.108-.557.282-.782h10.66v-1.563h-10.16v-2.405a2.334 2.334 0 0 1 .88-1.831l2.52-2.017h8.833l2.52 2.017a2.332 2.332 0 0 1 .879 1.83v2.406h-3.908v1.563h4.406c.175.224.274.498.284.782v2.345a.781.781 0 0 1-.782.781H10.345a.782.782 0 0 1-.782-.782v-2.344zm0 5.47a.782.782 0 0 1 .782-.78h15.632a.782.782 0 0 1 .782.78v2.346a.782.782 0 0 1-.782.781H10.345a.781.781 0 0 1-.782-.781v-2.345zm2.76 19.072l-1.04-.782a2.357 2.357 0 0 1-.938-1.875v-6.253h3.126V42.16H10.09a.768.768 0 0 0-.135-.104.787.787 0 0 1-.39-.678v-2.345a.782.782 0 0 1 .78-.782h15.633a.782.782 0 0 1 .782.782v2.345a.78.78 0 0 1-.391.678.77.77 0 0 0-.135.104H15.816v1.563h10.161v6.253a2.358 2.358 0 0 1-.938 1.876l-1.043.781c-.407.304-.9.468-1.407.47H13.73a2.361 2.361 0 0 1-1.408-.47z" fill="#003254"/></svg>