<svg width="24" height="24" viewBox="0 0 24 24" fill="none" xmlns="http://www.w3.org/2000/svg"><mask id="a" style="mask-type:alpha" maskUnits="userSpaceOnUse" x="0" y="0" width="24" height="24"><path fill="#D9D9D9" d="M0 0h24v24H0z"/></mask><g mask="url(#a)"><path d="M12 13.539a1.45 1.45 0 0 0 1.066-.434c.29-.29.434-.645.434-1.066a1.45 1.45 0 0 0-.434-1.067A1.45 1.45 0 0 0 12 10.54a1.45 1.45 0 0 0-1.066.433 1.45 1.45 0 0 0-.434 1.067c0 .421.145.777.434 1.066.289.289.644.434 1.066.434zm-3.5 3.384h7v-.152c0-.31-.083-.574-.248-.792a1.713 1.713 0 0 0-.67-.52 6.702 6.702 0 0 0-1.24-.396 6.333 6.333 0 0 0-1.342-.14c-.461 0-.909.047-1.341.14a6.701 6.701 0 0 0-1.242.397c-.28.128-.504.3-.669.519a1.272 1.272 0 0 0-.248.792v.152zM17.385 21H6.615c-.46 0-.844-.154-1.152-.462A1.565 1.565 0 0 1 5 19.385V4.615c0-.46.154-.844.463-1.153A1.565 1.565 0 0 1 6.615 3h6.29a1.665 1.665 0 0 1 1.151.479l4.465 4.465c.145.145.261.32.348.522.087.204.131.413.131.628v10.29c0 .46-.154.845-.462 1.154a1.565 1.565 0 0 1-1.153.462zm0-1a.588.588 0 0 0 .423-.192.588.588 0 0 0 .192-.423V8.85L13.15 4H6.615a.588.588 0 0 0-.423.192.588.588 0 0 0-.192.423v14.77c0 .153.064.294.192.423.129.128.27.192.423.192h10.77z" fill="#4D4F56"/></g></svg>