<svg width="32" height="32" viewBox="0 0 32 32" fill="none" xmlns="http://www.w3.org/2000/svg"><path d="M27 5c-11.2-1.2-13.333 8.166-13 13 6.401.8 10-3 11-5l-1.5-1.5 3-.5c1.2-2.8.834-5.167.5-6z" fill="#EF6C4F"/><path d="M27.992 4.564c.402 2.42.073 4.855-.916 7.043a.667.667 0 0 1-.608.392h-1.525l.85.85c.23.231.26.595.07.86a12.214 12.214 0 0 1-7.944 4.948 12.25 12.25 0 0 1-3.653.057c-1.085.854-2.055 1.285-2.933 1.285a.667.667 0 1 1 0-1.333c.52 0 1.179-.293 1.96-.885-.915-6.552 3.556-12.678 10.121-13.772a12.253 12.253 0 0 1 4.021-.002.664.664 0 0 1 .557.557zm-1.176 1.562l-3.011 3.012a.667.667 0 1 1-.943-.943l3.01-3.01a10.92 10.92 0 0 0-2.239.139c-5.549.925-9.418 5.883-9.108 11.373.507-.5 1.051-1.097 1.63-1.791a.667.667 0 1 1 1.024.854 27.35 27.35 0 0 1-1.556 1.727c.694.018 1.39-.03 2.077-.145 2.7-.45 5.075-1.871 6.74-3.96l-1.578-1.578a.667.667 0 0 1 .471-1.138h2.696a10.84 10.84 0 0 0 .787-4.54zm-.15 10.54a.667.667 0 1 1 1.334 0v8A3.333 3.333 0 0 1 24.667 28H7.333A3.333 3.333 0 0 1 4 24.666V7.333a3.333 3.333 0 0 1 3.333-3.334h8a.667.667 0 1 1 0 1.334h-8a2 2 0 0 0-2 2v17.333a2 2 0 0 0 2 2h17.334a2 2 0 0 0 2-2v-8z" fill="#003254"/></svg>