<svg width="150" height="150" viewBox="0 0 150 150" fill="none" xmlns="http://www.w3.org/2000/svg"><g clip-path="url(#a)"><path d="M149.983 74.159h.014c0-5.208-2.039-9.94-5.355-13.469l.006-.006-28.823-37.022H32.899L4.906 61.435l.012.012C2.27 64.58.641 68.561.361 72.906c-.21.407-.361.848-.361 1.339v49.137a2.956 2.956 0 0 0 2.956 2.956h144.089a2.953 2.953 0 0 0 2.955-2.956V74.245c0-.03-.017-.057-.017-.086zM35.577 29.574h77.661l17.595 24.907c-.186-.006-.364-.03-.553-.03H94.828v8.861c0 10.061-10.564 7.886-13.803 7.886H69.22c-3.24 0-13.802 2.175-13.802-7.886v-8.86H19.962c-.37 0-.73.035-1.097.052l16.712-24.93zm108.512 90.852H5.914V74.245c0-.03-.015-.056-.018-.086h.263c0-7.608 6.192-13.797 13.803-13.797h29.544v2.95c0 10.176 7.738 13.796 19.714 13.796h11.805c11.979 0 19.714-3.62 19.714-13.796v-2.95h29.547c3.804 0 7.253 1.546 9.753 4.043l.006.006a13.741 13.741 0 0 1 4.041 9.748h.02c0 .03-.018.056-.018.086l.001 46.181z" fill="#A6A6A6"/></g><defs><clipPath id="a"><path fill="#fff" d="M0 0h150v150H0z"/></clipPath></defs></svg>