<svg width="32" height="32" viewBox="0 0 32 32" fill="none" xmlns="http://www.w3.org/2000/svg"><g clip-path="url(#a)"><path d="M5 17l4-8-3.5-1.5-4 7.5L5 17z" fill="#EF6C4F"/><path fill-rule="evenodd" clip-rule="evenodd" d="M17.535 8.522A.667.667 0 0 1 18 8.334h5a.667.667 0 0 1 0 1.333h-4.73l-5.508 5.344a.333.333 0 0 0 .06.515l.002.002c1.922 1.228 4.548 1.173 6.703-.997a.666.666 0 0 1 .89-.05l4.534 3.626 1.578-1.578a.667.667 0 0 1 .943.943l-2 2a.667.667 0 0 1-.888.05l-4.549-3.64c-2.52 2.21-5.608 2.251-7.927.77a1.665 1.665 0 0 1-.287-2.587l.008-.007 5.707-5.536z" fill="#003254"/><path fill-rule="evenodd" clip-rule="evenodd" d="M4.458 16.613c.214-.3.63-.369.93-.155l6.897 4.927 7.511 1.877 4.733-4.733a.667.667 0 1 1 .943.943l-5 5a.667.667 0 0 1-.633.175l-8-2a.668.668 0 0 1-.226-.104l-7-5a.667.667 0 0 1-.155-.93zm1.988 7.017a.667.667 0 0 1 .925-.184l2.903 1.936 3.888.972a.667.667 0 1 1-.323 1.294l-4-1a.666.666 0 0 1-.208-.093l-3-2a.667.667 0 0 1-.185-.924zm9.372-17.27a.667.667 0 0 1 .366 0l7 2a.667.667 0 0 1-.366 1.282L16 7.694 9.184 9.642a.667.667 0 0 1-.366-1.282l7-2z" fill="#003254"/><path fill-rule="evenodd" clip-rule="evenodd" d="M4.921 6.761a1.667 1.667 0 0 1 1.273.091l3.105 1.553a.667.667 0 0 1 .298.894l-4 8a.667.667 0 0 1-.894.298l-3.105-1.552a1.669 1.669 0 0 1-.746-2.237l3.105-6.21a1.669 1.669 0 0 1 .964-.837zm.55 1.249a.333.333 0 0 0-.321.184l-3.105 6.21a.336.336 0 0 0 .046.368c.028.033.063.06.103.08l2.509 1.254L8.106 9.3 5.598 8.045a.335.335 0 0 0-.126-.035zm20.964-1.33a1.666 1.666 0 0 1 1.61.918m0 0l3.104 6.21a1.668 1.668 0 0 1-.745 2.237l-3.105 1.552a.667.667 0 0 1-.895-.298l-4-8a.667.667 0 0 1 .299-.894l3.104-1.553a1.68 1.68 0 0 1 .628-.172m.224 1.346a.334.334 0 0 0-.255.018L23.895 9.3l3.404 6.807 2.509-1.254a.334.334 0 0 0 .15-.448l-3.106-6.21a.336.336 0 0 0-.193-.168z" fill="#003254"/></g><defs><clipPath id="a"><path fill="#fff" d="M0 0h32v32H0z"/></clipPath></defs></svg>