<svg width="24" height="24" viewBox="0 0 24 24" fill="none" xmlns="http://www.w3.org/2000/svg"><mask id="a" style="mask-type:alpha" maskUnits="userSpaceOnUse" x="0" y="0" width="24" height="24"><path fill="#D9D9D9" d="M0 0h24v24H0z"/></mask><g mask="url(#a)"><path d="M12 21a8.719 8.719 0 0 1-3.5-.71 9.126 9.126 0 0 1-2.86-1.93 9.126 9.126 0 0 1-1.93-2.86A8.719 8.719 0 0 1 3 12c0-1.242.237-2.41.71-3.503A9.135 9.135 0 0 1 5.64 5.64 9.126 9.126 0 0 1 8.5 3.711 8.719 8.719 0 0 1 12 3c1.242 0 2.41.237 3.503.71a9.136 9.136 0 0 1 2.858 1.93 9.135 9.135 0 0 1 1.928 2.857A8.706 8.706 0 0 1 21 12a8.72 8.72 0 0 1-.71 3.5 9.126 9.126 0 0 1-1.93 2.86 9.136 9.136 0 0 1-2.857 1.93A8.713 8.713 0 0 1 12 21zm0-.992a14.856 14.856 0 0 0 1.452-2.221c.38-.727.69-1.54.929-2.44H9.619c.264.95.58 1.79.948 2.516.368.727.846 1.442 1.433 2.145zm-1.273-.15c-.467-.55-.893-1.23-1.278-2.04a11.73 11.73 0 0 1-.86-2.472H4.753a7.93 7.93 0 0 0 2.437 3.06 7.354 7.354 0 0 0 3.536 1.452zm2.546 0a7.355 7.355 0 0 0 3.536-1.452 7.93 7.93 0 0 0 2.437-3.06h-3.834a17.119 17.119 0 0 1-.957 2.491c-.385.81-.78 1.483-1.182 2.02zm-8.927-5.512h4.035c-.076-.41-.13-.81-.16-1.199a14.25 14.25 0 0 1 0-2.294c.03-.39.084-.789.16-1.2H4.346a8.223 8.223 0 0 0-.255 3.56c.061.41.146.787.255 1.133zm5.035 0h5.238c.076-.41.13-.803.16-1.18a14.026 14.026 0 0 0 0-2.333 12.02 12.02 0 0 0-.16-1.18H9.381c-.076.411-.13.804-.16 1.18a14.02 14.02 0 0 0 0 2.333c.03.377.084.77.16 1.18zm6.238 0h4.035a8.222 8.222 0 0 0 .255-3.56 7.418 7.418 0 0 0-.255-1.132h-4.035c.076.41.13.81.16 1.199a14.26 14.26 0 0 1 0 2.294c-.03.39-.084.789-.16 1.2zm-.207-5.692h3.834c-.586-1.27-1.389-2.29-2.409-3.06-1.02-.77-2.207-1.26-3.564-1.47.467.613.886 1.315 1.259 2.106.372.79.665 1.598.88 2.424zm-5.793 0h4.762a13.85 13.85 0 0 0-.977-2.546A11.1 11.1 0 0 0 12 3.992a11.1 11.1 0 0 0-1.404 2.116 13.85 13.85 0 0 0-.977 2.546zm-4.865 0h3.834c.215-.826.508-1.634.88-2.424.373-.79.792-1.493 1.259-2.107-1.37.21-2.56.704-3.574 1.48-1.014.778-1.813 1.794-2.4 3.05z" fill="#4D4F56"/></g></svg>