<svg width="32" height="32" viewBox="0 0 32 32" fill="none" xmlns="http://www.w3.org/2000/svg"><circle cx="16" cy="16" r="5" fill="#EF6C4F"/><path d="M6.667 8v.666a3.333 3.333 0 0 1-3.333 3.333h-.667v8h.722a3.333 3.333 0 0 1 3.333 3.334v.666h18.612v-.666a3.333 3.333 0 0 1 3.333-3.334h.667v-8h-.667a3.333 3.333 0 0 1-3.333-3.333v-.667H6.667zM5.334 8h-.667a2 2 0 0 0-2 2v.666h.667a2 2 0 0 0 2-2v-.667zm.055 16v-.667a2 2 0 0 0-2-2h-.722v.666a2 2 0 0 0 2 2h.722zm.912 1.333a.665.665 0 0 1-.49 0H4.667a3.333 3.333 0 0 1-3.333-3.334V10a3.333 3.333 0 0 1 3.333-3.333h22.667A3.333 3.333 0 0 1 30.667 10v12a3.333 3.333 0 0 1-3.333 3.334H6.301zm20.366-1.334h.667a2 2 0 0 0 2-2v-.666h-.667a2 2 0 0 0-2 2v.666zm0-16v.667a2 2 0 0 0 2 2h.667v-.667a2 2 0 0 0-2-2h-.667zM16.001 21.333a5.333 5.333 0 1 1 0-10.667 5.333 5.333 0 0 1 0 10.667zm0-1.334a4 4 0 1 0 0-8 4 4 0 0 0 0 8z" fill="#003254"/><path fill-rule="evenodd" clip-rule="evenodd" d="M2.208 2.208a.65.65 0 0 1 .92 0l26 26a.65.65 0 0 1-.92.92l-26-26a.65.65 0 0 1 0-.92z" fill="#003254"/></svg>