<svg width="36" height="22" viewBox="0 0 36 22" fill="none" xmlns="http://www.w3.org/2000/svg"><path fill-rule="evenodd" clip-rule="evenodd" d="M8.174 14.384c-2.92.02-5.82-.92-7.41-2.827C-1.962 8.286 2.944-.761 10.144.05c5.234.59 8.412 6.626 6.079 10.628-.912 2.984-6.21 10.404-8.05 10.57-.714.065-.474-.947-.158-2.283.347-1.468.786-3.327.159-4.581zm19 0c-2.92.02-5.82-.92-7.41-2.827C17.038 8.286 21.944-.761 29.144.05c5.234.59 8.412 6.626 6.079 10.628-.912 2.984-6.21 10.404-8.05 10.57-.714.065-.474-.947-.158-2.283.347-1.468.787-3.327.159-4.581z" fill="#EF6C4F"/></svg>